/* XPM */
static char *background[] = {
/* columns rows colors chars-per-pixel */
"80 80 13 1",
"  c #3c9152",
". c #42AF5F",
"X c #41B560",
"o c #40BA61",
"O c #43BF64",
"+ c #47BF67",
"@ c #2d8043",
"# c #42C565",
"$ c #46C568",
"% c #3c9152",
"& c #49CA6B",
"* c #48CF6C",
"= c #4BD570",
/* pixels */
"@@@@@@@@@@@@@@@@@@@@  X@@@@@@@@@@@@@@@@@@@@@@@@@@@@@@@@@@@@@==%@@@@@@@@@@@@  X@@",
"@@@@@@@@@@@@@@@@@@@@  X@@@@@@@@@@@@@@@@@@@@@@@@@@@@@@@@@@@@@==%@@@@@@@@@@@@  X@@",
"@@#%%@@@@@@@@@@@@@@@XXo@@@@@@@%%#@@@@@@@@@@@@@@@@@@@@@@@@@@@==$XX@@@@@@@@@@  X@@",
"@@%==@@@@@@@@@@@@@@@@@@@@@@@@@==%@@@@@@@@@@@@@@@@@@@@@@@@@@@==+  @@@@@@@@@@  X@@",
"@@%==@@@@@@@@@@@@@@@@@@@@@@@@@==%@@@@@@@@@@@@@@@@@@@@@@@@@@@==+  @@@@@@@@@@  X@@",
"==%@@@@@@@@@@@@@@@@@@@@@@@@@@@@@@@@@@@@@@@@@@@@%==@@@@@==%@@  X@@@@@@@@@X  @@@@@",
"==%@@@@@@@@@@@@@@@@@@@@@@@@@@@@@@@@@@@@@@@@@@@@%==@@@@@==%@@  X@@@@@@@@@X  @@@@@",
"%%#@@@@@@@@@@@@XXXXX%%%%%%%#@@@@@@@@@@@@@@@@@@@#%%@@@@@%%#@@XXo@@@@@@@@@oXX%%#@@",
"@@@@@@@@@@@@@@@     =======%@@@@@@@@@@@@@@@@@@@@@@@@@@@@@@@@@@@@@@@@@@@@@@@==%@@",
"@@@@@@@@@@@@@@@     =======%@@@@@@@@@@@@@@@@@@@@@@@@@@@@@@@@@@@@@@@@@@@@@@@==%@@",
"     @@@@@@@X    +==@@@@@@@X  @@@@@@@@@@@@%==@@@@@@@@@@@@@@@@@@@@@@@@@=====@@@@@",
"     @@@@@@@X    +==@@@@@@@X  @@@@@@@@@@@@%==@@@@@@@@@@@@@@@@@@@@@@@@@=====@@@@@",
"  .XX@@@@@XX.  XXO%%%%#@@@@oXX@@@@@@@@@@@@#%%@@@@@@@oXXXXo@@@@@@@@@@@@%%%%%@@@@@",
"  X@@@@@@@     @@@@@==%@@@@@@@@@@@@@@@@@@@@@@@@@@@@@X    X@@@@@@@@@@@@@@@@@@@@@@",
"  X@@@@@@@     @@@@@==%@@@@@@@@@@@@@@@@@@@@@@@@@@@@@X    X@@@@@@@@@@@@@@@@@@@@@@",
"@@%==@@@@@  X@@@@@@@@@@@@@@@@@@@@@@@@@@@@@@@@@@@@@@@@@@@@@@@@@X  @@@@@@@@@@@@@@@",
"@@%==@@@@@  X@@@@@@@@@@@@@@@@@@@@@@@@@@@@@@@@@@@@@@@@@@@@@@@@@X  @@@@@@@@@@@@@@@",
"@@#%%@@oXXXXo@@@@@@@@@@@@@@@@@@@oXX@@@@@@@@@@@@@@@@@@@@@@@@@@@oXX@@@@@@@oXX@@@@@",
"@@@@@@@X  @@@@@@@@@@@@@@@@@@@@@@X  @@@@@@@@@@@@@@@@@@@@@@@@@@@@@@@@@@@@@X  @@@@@",
"@@@@@@@X  @@@@@@@@@@@@@@@@@@@@@@X  @@@@@@@@@@@@@@@@@@@@@@@@@@@@@@@@@@@@@X  @@@@@",
"@@@@@@@@@@@@@@@@@@@@@@@@@@@@@@@@@@@@@@@@@@@@@@@X  @@@@@@@@@@@@@@@@@@@@@@X  @@@@@",
"@@@@@@@@@@@@@@@@@@@@@@@@@@@@@@@@@@@@@@@@@@@@@@@X  @@@@@@@@@@@@@@@@@@@@@@X  @@@@@",
"@@@@@@@oXX@@@@@@@@@@@@@@@@@@@@@@@@@@@@@@@@@@@@@oXX@@@@@@@@@@@@@@@@@@@@XX.  @@@@@",
"@@@@@@@X  @@@@@@@@@@@@@@@@@@@@@@@@@@@@@@@@@@@@@@@@@@@@@@@@@@@@@@@@@@@@     @@@@@",
"@@@@@@@X  @@@@@@@@@@@@@@@@@@@@@@@@@@@@@@@@@@@@@@@@@@@@@@@@@@@@@@@@@@@@     @@@@@",
"@@%==@@@@@@@@@@@@@@@@@@@@@@@@@@@@@@@@@@@@@@@@@@@@@@@%==@@@@@@@@@@=====  X@@@@%==",
"@@%==@@@@@@@@@@@@@@@@@@@@@@@@@@@@@@@@@@@@@@@@@@@@@@@%==@@@@@@@@@@=====  X@@@@%==",
"XXO%%@@@@@@@@@@@@@@@%%#@@@@@@@XXo@@@@@@@@@@@@@@@@@@@#%%@@@@@@@#%%==&++XXo@@@@#%%",
"  X@@@@@@@@@@@@@@@@@==%@@@@@@@  X@@@@@@@@@@@@@@@@@@@@@@@@@@@@@%====+  @@@@@@@@@@",
"  X@@@@@@@@@@@@@@@@@==%@@@@@@@  X@@@@@@@@@@@@@@@@@@@@@@@@@@@@@%====+  @@@@@@@@@@",
"@@@@@@@@@@@@@@@=====@@@@@@@@@@@@@@@@@@@@@@@@@@@@@@@@@@@@@@@@@@@@@@@@@@@@@@@@@@@@",
"@@@@@@@@@@@@@@@=====@@@@@@@@@@@@@@@@@@@@@@@@@@@@@@@@@@@@@@@@@@@@@@@@@@@@@@@@@@@@",
"@@@@@@@@@@@@@@@==&++@@@@@@@@@@@@@@@@@#%%@@@@@@@@@@@@@@@@@@@@@@#%%@@@@@@@@@@@@@@@",
"@@@@@@@@@@@@@@@==+  @@@@@@@@@@@@@@@@@%==@@@@@@@@@@@@@@@@@@@@@@%==@@@@@@@@@@@@@@@",
"@@@@@@@@@@@@@@@==+  @@@@@@@@@@@@@@@@@%==@@@@@@@@@@@@@@@@@@@@@@%==@@@@@@@@@@@@@@@",
"@@@@@@@@@@@@%==@@@@@@@@@@@@@@@@@@@@@@@@@@@@@@@@@@@@@X  @@@@@@@@@@@@X    X@@@@@@@",
"@@@@@@@@@@@@%==@@@@@@@@@@@@@@@@@@@@@@@@@@@@@@@@@@@@@X  @@@@@@@@@@@@X    X@@@@@@@",
"@@oXX@@@@@%%*==@@@@@@@@@@%%#@@@@@@@@@@@@@@@@@@@@@@@@oXX@@@@@@@@@@XX.  XXo@@@@@@@",
"@@X  @@@@@=====@@@@@@@@@@==%@@@@@@@@@@@@@@@@@@@@@@@@@@@@@@@@@@@@@     @@@@@@@@@@",
"@@X  @@@@@=====@@@@@@@@@@==%@@@@@@@@@@@@@@@@@@@@@@@@@@@@@@@@@@@@@     @@@@@@@@@@",
"@@@@@@@%==  X@@@@@@@@@@@@@@@@@@@@@@@@@@@@@@@@@@@@@@@@@@@@@@@@@X  @@@@@@@@@@@@@@@",
"@@@@@@@%==  X@@@@@@@@@@@@@@@@@@@@@@@@@@@@@@@@@@@@@@@@@@@@@@@@@X  @@@@@@@@@@@@@@@",
"@@@@@XXO%%XXo@@@@@@@@@@@@@@@@@@@@@@@@#%%@@@@@@@@@@%%#@@@@@@@@@X  @@@@@@@@@@@@@@@",
"@@@@@  X@@@@@@@@@@@@@@@@@@@@@@@@@@@@@%==@@@@@@@@@@==%@@@@@@@@@X  @@@@@@@@@@@@@@@",
"@@@@@  X@@@@@@@@@@@@@@@@@@@@@@@@@@@@@%==@@@@@@@@@@==%@@@@@@@@@X  @@@@@@@@@@@@@@@",
"@@@@@@@@@@@@@@@@@@@@@@@@@@@@@@@@@@@=====@@@@@@@@@@@@@@@@@@@@  +====%@@@@@@@@@@@@",
"@@@@@@@@@@@@@@@@@@@@@@@@@@@@@@@@@@@=====@@@@@@@@@@@@@@@@@@@@  +====%@@@@@@@@@@@@",
"@@@@@@@@@@@@@@@@@@@@@@@@@@@@@@XXo@@%%%%%@@@@@@@@@@@@@@@@@oXX  +==%%#@@@@@@@@@@@@",
"@@@@@@@@@@@@@@@@@@@@@@@@@@@@@@  X@@@@@@@@@@@@@@@@@@@@@@@@X    +==@@@@@@@@@@@@@@@",
"@@@@@@@@@@@@@@@@@@@@@@@@@@@@@@  X@@@@@@@@@@@@@@@@@@@@@@@@X    +==@@@@@@@@@@@@@@@",
"@@@@@@@@@@@@@@@@@@@@@@@@@     @@@@@@@@@@@@@@@@@@@@@@@@@@@@@@=====@@@@@@@@@@@@@@@",
"@@@@@@@@@@@@@@@@@@@@@@@@@     @@@@@@@@@@@@@@@@@@@@@@@@@@@@@@=====@@@@@@@@@@@@@@@",
"@@@@@@@@@@@@@@@@@@@@@@#%%  .XX@@@@@@@@@@@@@@@@@oXX@@@@@@@#%%==*%%@@@@@@@@@@@@@@@",
"@@@@@@@@@@@@@@@@@@@@@@%==  X@@@@@@@@@@@@@@@@@@@X  @@@@@@@%====%@@@@@@@@@@@@@@@@@",
"@@@@@@@@@@@@@@@@@@@@@@%==  X@@@@@@@@@@@@@@@@@@@X  @@@@@@@%====%@@@@@@@@@@@@@@@@@",
"@@@@@  X@@@@@@@@@@@@@@@@@@@@@@@@@@@@@@@@@@@@@@@%==@@@@@==%@@@@@@@@@@@@@@@@@@@@@@",
"@@@@@  X@@@@@@@@@@@@@@@@@@@@@@@@@@@@@@@@@@@@@@@%==@@@@@==%@@@@@@@@@@@@@@@@@@@@@@",
"@@@@@XXo@@@@oXX@@@@@@@@@@@@@@@@@@@@XXXXX@@@@@@@#%%@@@@@%%#@@@@@@@@@@@@@@@@@@@@@@",
"@@@@@@@@@@@@X  @@@@@@@@@@@@@@@@@@@@     @@@@@@@@@@@@@@@@@@@@@@@@@@@@@@@@@@@@@@@@",
"@@@@@@@@@@@@X  @@@@@@@@@@@@@@@@@@@@     @@@@@@@@@@@@@@@@@@@@@@@@@@@@@@@@@@@@@@@@",
"@@%==@@%==@@@@@@@@@@@@@@@  X@@@@@@@  +====%@@@@@@@@@@@@@@@@@@@@@@@@@@@@@@@@  X@@",
"@@%==@@%==@@@@@@@@@@@@@@@  X@@@@@@@  +====%@@@@@@@@@@@@@@@@@@@@@@@@@@@@@@@@  X@@",
"@@#%%@@#%%@@@@@@@@@@@@@@@  X@@@@@@@++$%%%%#@@@@@@@@@@@@@@@@@@@@@@@@@@@@@oXX  X@@",
"@@@@@@@@@@@@@@@@@@@@@@@@@  X@@@@@@@==%@@@@@@@@@@@@@@@@@@@@@@@@@@@@@@@@@@X    X@@",
"@@@@@@@@@@@@@@@@@@@@@@@@@  X@@@@@@@==%@@@@@@@@@@@@@@@@@@@@@@@@@@@@@@@@@@X    X@@",
"@@X  @@@@@@@@@@@@@@@@@@@@@@@@@==%@@@@@@@@@@@@@@@@@@@@@@@@@@@@@@@@@@@@@     @@@@@",
"@@X  @@@@@@@@@@@@@@@@@@@@@@@@@==%@@@@@@@@@@@@@@@@@@@@@@@@@@@@@@@@@@@@@     @@@@@",
"@@oXX@@@@@@@@@@%%#@@@@@@@%%%%%%%#@@@@@@@@@@@@@@@@@@@@@@@@@@@@@@@@@@@@@XXXXX@@@@@",
"@@@@@@@@@@@@@@@==%@@@@@@@=====@@@@@@@@@@@@@@@@@@@@@@@@@@@@@@@@@@@@@@@@@@@@@@@@@@",
"@@@@@@@@@@@@@@@==%@@@@@@@=====@@@@@@@@@@@@@@@@@@@@@@@@@@@@@@@@@@@@@@@@@@@@@@@@@@",
"@@@@@@@%==@@%==@@@@@@@@@@==%@@@@@@@@@@@@@@@@@@@@@@@@@@@@@@@@@@@@@@@@@@@@%====%@@",
"@@@@@@@%==@@%==@@@@@@@@@@==%@@@@@@@@@@@@@@@@@@@@@@@@@@@@@@@@@@@@@@@@@@@@%====%@@",
"@@@@@@@#%%XXO%%@@@@@@@@@@%%#@@@@@@@@@@@@@@#%%@@@@@%%%%%@@@@@@@@@@%%#@@@@#%%%%#@@",
"@@@@@@@@@@  X@@@@@@@@@@@@@@@@@@@@@@@@@@@@@%==@@@@@=====@@@@@@@@@@==%@@@@@@@@@@@@",
"@@@@@@@@@@  X@@@@@@@@@@@@@@@@@@@@@@@@@@@@@%==@@@@@=====@@@@@@@@@@==%@@@@@@@@@@@@",
"@@X       @@@@@@@@@@@@@@@@@@@@@@@@@@@@@@==%@@@@@@@@@@@@@@X    X@@@@@@@@@@@@@@@@@",
"@@X       @@@@@@@@@@@@@@@@@@@@@@@@@@@@@@==%@@@@@@@@@@@@@@X    X@@@@@@@@@@@@@@@@@",
"@@X    .XX@@@@@@@#%%@@@@@@@@@@@@@@@XXXXX%%%%%%%#@@XXXXX@@oXXXXo@@@@#%%@@@@@@@@@@",
"@@X    X@@@@@@@@@%==@@@@@@@@@@@@@@@     @@%====%@@     @@@@@@@@@@@@%==@@@@@@@@@@",
"@@X    X@@@@@@@@@%==@@@@@@@@@@@@@@@     @@%====%@@     @@@@@@@@@@@@%==@@@@@@@@@@"
};
