/* XPM */
static char *New_Piskel__2__resized[] = {
/* columns rows colors chars-per-pixel */
"80 80 194 2 ",
"   c #66C73E",
".  c #67C73E",
"X  c #66C83E",
"o  c #67C83E",
"O  c #69C83C",
"+  c #6AC93D",
"@  c #68C83E",
"#  c #71CB3A",
"$  c #79CA3A",
"%  c #7DD034",
"&  c #3DB74E",
"*  c #29AF56",
"=  c #2AAF56",
"-  c #2EB152",
";  c #2FB152",
":  c #2FB153",
">  c #2AB056",
",  c #2BB056",
"<  c #2BB057",
"1  c #2DB154",
"2  c #2CB055",
"3  c #2DB155",
"4  c #2FB155",
"5  c #2FB255",
"6  c #2FB355",
"7  c #2CB056",
"8  c #2DB156",
"9  c #2DB157",
"0  c #2EB156",
"q  c #2EB157",
"w  c #2FB157",
"e  c #2CB256",
"r  c #2DB256",
"t  c #2EB256",
"y  c #2FB256",
"u  c #2EB356",
"i  c #2FB356",
"p  c #2EB257",
"a  c #2BB058",
"s  c #2AB158",
"d  c #2CB158",
"f  c #2FB259",
"g  c #30B153",
"h  c #30B253",
"j  c #30B254",
"k  c #31B254",
"l  c #31B354",
"z  c #30B355",
"x  c #31B355",
"c  c #32B354",
"v  c #33B354",
"b  c #32B355",
"n  c #33B355",
"m  c #30B256",
"M  c #30B356",
"N  c #31B356",
"B  c #32B356",
"V  c #33B356",
"C  c #34B354",
"Z  c #34B355",
"A  c #33B454",
"S  c #33B456",
"D  c #34B454",
"F  c #35B454",
"G  c #36B554",
"H  c #34B456",
"J  c #34B457",
"K  c #35B557",
"L  c #38B751",
"P  c #3AB453",
"I  c #39B652",
"U  c #3FB552",
"Y  c #39B254",
"T  c #3EB850",
"R  c #3FB850",
"E  c #35B558",
"W  c #36B558",
"Q  c #36B559",
"!  c #36B659",
"~  c #37B659",
"^  c #34B55B",
"/  c #37B65A",
"(  c #38B75A",
")  c #38B75B",
"_  c #39B75B",
"`  c #39B85B",
"'  c #3AB85C",
"]  c #3AB85D",
"[  c #3BB85D",
"{  c #3BB95D",
"}  c #39B85F",
"|  c #3BB95E",
" . c #3CB95E",
".. c #3FBB60",
"X. c #3FBB61",
"o. c #3FBC61",
"O. c #4AB74F",
"+. c #43BA4D",
"@. c #42BA4E",
"#. c #43BA4E",
"$. c #45BA4D",
"%. c #46BB4C",
"&. c #47BB4C",
"*. c #4ABC4A",
"=. c #49BB4C",
"-. c #51BF47",
";. c #54B74D",
":. c #5DB74C",
">. c #43B452",
",. c #44B551",
"<. c #47B650",
"1. c #60B84A",
"2. c #69B949",
"3. c #69BA48",
"4. c #40BC61",
"5. c #40BC62",
"6. c #41BC62",
"7. c #41BD63",
"8. c #42BD63",
"9. c #42BD64",
"0. c #43BE64",
"q. c #43BE65",
"w. c #44BE65",
"e. c #44BF66",
"r. c #45BF66",
"t. c #52C047",
"y. c #53C047",
"u. c #5AC443",
"i. c #5EC442",
"p. c #5FC442",
"a. c #7AC140",
"s. c #46C067",
"d. c #48C169",
"f. c #49C169",
"g. c #49C269",
"h. c #49C26A",
"j. c #4AC26A",
"k. c #4AC26B",
"l. c #48C26C",
"z. c #4CC46D",
"x. c #4DC46D",
"c. c #4DC46E",
"v. c #4DC56E",
"b. c #4EC56E",
"n. c #4EC56F",
"m. c #4FC56F",
"M. c #52C872",
"N. c #53C872",
"B. c #53C873",
"V. c #54C873",
"C. c #54C974",
"Z. c #55C974",
"A. c #59CC78",
"S. c #59CC79",
"D. c #5ACC79",
"F. c #5ACD79",
"G. c #5BCE7A",
"H. c #5CCE7A",
"J. c #5CCE7B",
"K. c #60D07E",
"L. c #60D17F",
"P. c #61D17F",
"I. c #91BF3F",
"U. c #B2E51D",
"Y. c #B0E41E",
"T. c #B8E51C",
"R. c #8AD52F",
"E. c #8BD62E",
"W. c #8DD62D",
"Q. c #8ED72D",
"!. c #8FD72D",
"~. c #8CD62E",
"^. c #9DDD26",
"/. c #9CDC27",
"(. c #9FDD26",
"). c #93C03E",
"_. c #80D133",
"`. c #A1D52B",
"'. c #A4CA34",
"]. c #A1C13B",
"[. c #B6C435",
"{. c #BDC732",
"}. c #C6ED15",
"|. c #C7ED15",
" X c #C9EE13",
".X c #CAEE13",
"XX c #C8ED14",
"oX c #E6F907",
"OX c #E4F808",
"+X c yellow",
"@X c #CEC730",
"#X c #83BD42",
"$X c #69D687",
"%X c #6AD687",
/* pixels */
"b b b b b b b b b l h g - V s.P.$XC.' h k b b b b b b b b b b b b b b b b b b b b b b b b b b b b b b b b b b b b b b b b b b b b b b b b b b b b b q d *./.oX+X",
"b b b b b b b b b J / ) J H 9.D.P.m.) j k b b b b b b b b b b b b b b b b b b b b b b b b b b b b b b b b b b b b b b b b b b b b b b b b b b b b b p 9 &.E..XoX",
"b b b b b b b k V  .h.c.8.! { g.v.0.W k l b b b b b b b b b b b b b b b b b b b b b b b b b b b b b b b b b b b b b b b b b b b b b b b b b b b b b m y T   E./.",
"b b b b b b b h V 9.A.K.b.) V ! ) Q S b b b b b b b b b b b b b b b b b b b b b b b b b b b b b b b b b b b b b b b b b b b b b b b b b b b b b b b x x F T &.*.",
"k k l b b b b j V 5.B.A.k./ h g j k b b b b l k k c b b b b b b b b b b b b b b b b b b b b b b b b b b b b b b b b b b b b b b b b b b b b b b b b b b x y 9 d ",
"h j k b b b b l b ( 5.9. .J k k k l b b b b k j j l b b b b b b b b b b b b b b b b b b b b b b b b b b b b b b b b b b b b b b b b b b b b b b b b b b x m p q ",
"' ) W S b b b b b b V V V b b b b b b b b S Q ) / J b b b b b b b b b b b b b b b b b b b b b b b b b b b b b b b b b b b b b b b b b b b b b b b b b b b b b b ",
"C.m.0.Q k l b b b l j h k b b b b b b l k Q q.n.k. .V k b b b b b b b b b b b b b b b b b b b b b b b b b b b b b b b b b b b b b b b k h j l b b b b b b b b b ",
"$XP.v.) j k b b b b b b b b b b b b b k j ) n.L.A.9.V h b b b b b b b b b b b b b b b b b b b b b b b b b b b b b b b b b b b b b b b V V V b b b b b b b b b b ",
"P.D.h./ j k b b b b b b b b b b b b b k j / k.A.B.5.V j b b b b b b b b b b b b b b b b b b b b b b b b b b b b b b b b b b b b c l J  .9.5.( b l b b b b b b b ",
"s.0. .J l c b b b b b b b b b b b b b c l J  .9.5.( b l b b b b b b b b b b b b b b b b b b b b b b b b b b b b b b b b b b b b k j / k.A.B.5.V j b b b b b b b ",
"B B B b b b b b b b b b b b b b b b b b b b V V V b b b b b b b b b b b b b b b x x b b b b b b b b b b b b b b b b b b b b b b k j ) n.L.A.9.V h b b b b b b b ",
"* = 8 N b b b b b b b b b b b b b b b b b b k h j l b b b b b b b b b b b b b m 9 d p x b b b b b b b b b b b b b b b b b b b b l k Q q.n.k. .V k b b b b b b b ",
"F D v b b b b b b b b b b b b b b b b b b b b b b b b b b b b b b b b b b b b n D D A b b b b b b b b b b b b b b b b b b b b b b b S Q ) / J b b b b b b b b b ",
"# o -.I m N b b b b b b b b b b b b b b b b b b b b b b b b b b b b b b b m n $.p.. t.I m N b b b b b b b b b b b b b b b b b b c l k j h k l b b b b b b b b b ",
" XU.% #.q y b b b b b b b b b b b b b b b b b b b b b b b b b b b b b b x 9 D p.^.Y._.+.q y b b b b b b b b b b b b b b b b b b l k h j k l c b b b b b b b b b ",
"OXXXR.%.9 y b b b b b b b b b b b b b b b b b b b b b b b b b b b b b b x d D . Y.}.W.%.9 y b b b b b b b b b b b b b b b b b b J / ) Q S b b b b b b b b b b b ",
"(.Q.@ R y m b b b b b b b b b b b b b b b b b b l j h k b b b b b b b b b p A t._.W.+ R y m b b b b b b b b b b b b b b b b k V  .k.n.q.Q k l b b b b b b b b b ",
"*.&.T F x x b b b b b b b b b b b b b b b b b b b V V V b b b b b b b b b x b I +.%.R F x x b b b b b b b b b b b b b b b b h V 9.A.L.n.) j k b b b b b b b b b ",
"d 9 y x b b b b b b b b b b b b b b b b b b l b ( 5.9. .J l c b b b b b b b b m q 9 y x b b b b b b b b b b b b b b b b b b j V 5.B.A.k./ j k b b b b b b b b b ",
"q p m x b b b b b b b b b b b b b b b b b b j V 5.B.A.k./ j k b b b b b b b b N y y m x b b b b b b b b b b b b b b b b b b l b ( 5.9. .J l c b b b b b b b b b ",
"b b b b b b b b b b b b b b b b b b b b b b h V 9.A.L.n.) j k b b b b b b b b b b b b b b b b b b b b b b b b b b b b b b b b b b V V V b b b b b b b b b b b b ",
"b b b b b b b b b b b b b b b b b b b b b b k V  .k.n.q.Q k l b b b b b b b b b b b b b b b b b b b b b b b b b b b b b b b b b l j h k b b b b b b b b b b b b ",
"b b b b b b b b b b b b b b b b b b b b b b b b J / ) Q S b b b b b b b b b b b b b b b b b b b b b b b b b b b b b b b b b b b b b b b b b b b b b b b b b b b ",
"b b b b b b b b b b b b b b b b b b b b b b b b l j j k b b b b b b b b b b b c k k l b b b b b b b b b b b b b b l k k c b b b b b b b b b b b b b b b b b b b ",
"b b b b b b b b b b b b b b b b b b b b b b b b c k k l b b b b b b b b b b b l j j k b b b b b b b b b b b b b b k j j l b b b b b b b b b b b b b b b b b b b ",
"b b b b b b b b b b b b b b b b b b b b b b b b b b b b b b b b b b b b b b b J / ) Q S b b b b b b b b b b b b S Q ) / J b b b b b b b b b b b b b b b b b b b ",
"b b b b b b b b b b b b b b b b b b b b b b b b b b b b b b b b b b b b b k V  .k.n.q.Q k l b b b b b b b b l k Q q.n.k. .V k b b b b b b b b b b b b b b b b b ",
"b b b b b b b b b b b b b b b b b b b b b b b b b b b b b b b b b b b b b h V 9.A.L.n.) j k b b b b b b b b k j ) n.L.A.9.V h b b b b b b b b b b b b b b b b b ",
"b b b b b b b b b b b b b b b b b b b b b b b b b b b b b b b b b b b b b j V 5.B.A.k./ j k b b b b b b b b k j / k.A.B.5.V j b b b b b b b b b b b b b b b b b ",
"b b b b b b b b b b b b b b b b b b b b b b b b b b b b b b b b b b b b b l b ( 5.9. .J l c b b b b b b b b c l J  .9.5.( b l b b b b b b b b b b b b b b b b b ",
"b b b b b b b b b b b b b b b b b b b b b b b b b b b b b b b b b b b b b b b b V V V b b b b b b b b b b b b b b V V V b b b b b b b b b b b b b b b b b b x x ",
"b b b b b b b b b b b b b b b b b b b b b b b b b b b b b b b b b b b b b b b l j h k b b b b b b b b b b b l j h g h j l b b b b b b b b b b b b b b b x p d a ",
"b b b b b b b b b b b b b b b b b b b b b b b b b b b b b b b b b b b b b b b b b b b b b b b b b b b b b b b V V V b b b b b b b b b b b b b b b b b b b A D F ",
"b b b b c k k l b b b b b b b b b b b b b b b b N y y m x b b b b b b b b b b b b b b b b b b b b c k k k b ( 5.9. .J l c b b b b b b b b c k k l b N m I -.o # ",
"b b b b l j j k b b b b b b b b b b b b b b b b m q 9 y x b b b b b b b b b b b b b b b b b b b b l j h : V 5.B.A.k./ j k b b b b b b b b l j j k b y q #.% U. X",
"b b b b J / ) Q S b b b b b b b b b b b b b x b I +.%.R F x x b b b b b b b b b b b b b b b b b b J / ) J H 9.A.L.n.) j k b b b b b b b b J / ) Q S p 9 %.R.XXOX",
"b b k V  .k.n.w.Q j g h k b b b b b b b b b p A t._.W.+ R y m b b b b b b b b b b b b b b b b k V  .k.n.9.! { j.n.q.Q k l b b b b b b k V  .k.n.q.Q 5 0 R @ Q.(.",
"b b h V 9.A.L.n.) j c V V b b b b b b b b x d D . Y.}.W.%.9 y b b b b b b b b b b b b b b b b h V 9.A.L.b.) V ! ) Q S b b b b b b b b h V 9.A.L.n.) j k F T &.*.",
"b b j V 5.B.A.j.( ! X.9. .J l c b b b b b x 9 D p.^.Y._.+.q y b b b b b b b b b b b b b b b b j V 5.V.S.l.^ 1 : j k b b b b b b b b b j V 5.B.A.k./ k l x 0 7 < ",
"b b l b ( 5.9.[ E o.B.A.k./ j k b b b b b b m n $.p.. t.I m N b b b b b b b b b b b b b b b b l b ( 5.9.} f 8 4 k c b b b b b b b b b l b ( 5.9. .J c c x 5 3 2 ",
"b b b b b V V j S 9.A.L.n.) j k b b b b b b b b n D D A b b b b b b b b b b b b b b b b b b b b b b B G R %.+.I b x b b b b b b b b b b b b V V V b b b S W ) ' ",
"b b b b l j h g b  .k.n.q.Q k l b b b b b b b b m 9 d p x b b b b b b b b b b b b b b b b b b b b 5 3 & O W._.t.A p b b b b b b b b b b b l j h k b l k Q 0.m.C.",
"b b b b b b b c b J / ) Q S b b b b b b b b b b b x x b b b b b b b b b b b b b b b b b b b b b b y 9 %.W.}.Y.. D d x b b b b b b b b b b b b b b b k j ) v.P.$X",
"k k l b b b b b b l j j k b b b b b b b b b b b b b b b b b b b b b b b b b b b b b b b b b b b b y q +._.Y.^.p.D 9 x b b b l k k c b b b b b b b b k j / h.D.P.",
"h j k b b b b b b c k k l b b b b b b b b b b b b b b b b b b b b b b b b b b b b b b b b b b b b N m I t.. p.$.n m b b b b k j j l b b b b b b b b c l J  .0.s.",
"' ) W S b b b b b b b b b b b b b b b b b b b b b b b b b b b b b b b b b b b b b b b b b b b b b b b b A D D n b b b b b S Q ) / J b b b b b b b b b b b V V S ",
"C.m.0.Q k l b b b b b b b b b b b b b b b b b b b b b b b b b b k h j l b b b b b b b b b b b b b b b x p d 9 m b b b l k Q q.n.k. .V k b b b b b b b b b k h g ",
"$XP.v.) j k b b b b b b b b b b b b b b b b b b b b b b b b b b V V V b b b b b b b b b b b b b b b b b b x x b b b b k j ) n.L.A.9.V h b b b b b b b b b b b b ",
"P.D.h./ k l b l k k c b b b b b b b b b b b b b b b b b b c l J  .9.5.( b l b b b b b b b b b b b b b b b b b b b b b k j / k.A.B.5.V j b b b b b b b b b b b b ",
"s.0. .J l c b k j j l b b b b b b b b b b b b b b b b b b k j / k.A.B.5.V j b b b b b b b b b b b b b b b b b b b b b c l J  .9.5.( b l b b b b b b b b b b b b ",
"S V V b b b S Q ) / J b b b b b b b b b b b b b b b b b b k j ) n.L.A.9.V h b b b b b b b b b b b b b b b b b b b b b b b b V V V b b b b b b b b b b b b b b b ",
"g h k b l k Q q.n.k. .V k b b b b k h j l b b b b b b b b l k Q q.n.k. .V k b b b b b b b b b b b b b b b b b b b b b b b b k h j l b b b b b b b b b b b b b b ",
"b b b b k j ) n.L.A.9.V h b b b b V V V b b b b b b b b b b b S Q ) / J b b b b b b b b b b b b b b b b b b b b b b b b b b b b b b b b b b b b b b b b b b b b ",
"b b b b k j / k.A.B.5.V j b c l J  .9.5.( b l b b b b b b b b b k j j l b b b b b b b b b b b b b b b b b b b b b b b b b x m y y N b b b c k k l b b b b b b b ",
"b b b b c l J  .9.5.( b l b k j / k.A.B.5.V j b b b b b b b b b l k k c b b b b b b b b b b b b b b b b b b b b b b b b b x y 9 q m b b b l j j k b b b b b b b ",
"b b b b b b b V V V b b b b k j ) n.L.A.9.V h b b b b b b b b b b b b b b b b b b b b b b b b b b b b b b b b b b b b x N D T %.+.I b N b J / ) Q S b b b b b b ",
"b b b b b b b k h j l b b b l k Q q.n.k. .V k b b b b b b b b b b b b b b b b b b b b b b b b b b b b b b b b b b b b t s L X ~._.y.v 8 B  .k.n.q.Q k l b b b b ",
"b b b b b b b b b b b b b b b b S Q ) / J b b b b b b b b b b b b b b b b b b b b b b b b b b b b b b b b b b b b b b m w =.!.|.Y.. D > B 9.A.L.n.) j k b b b b ",
"k k l b b b b b b N y y m x b b b k j j l b b b b b b b b b b b b b b b b b b b b b b b b b b b b b b b b b b b b M n >.:.a.`.T./.i.D , B 5.B.A.k./ j k b b b b ",
"h j k b b b b b b m q 9 y x b b b l k k c b b b b b b b b b b b b b b b b b b b b b b b b b b b b b b b b b b b x r Z 1.].{.'.$ u.@.n 5 b ( 5.9. .J l c b b b b ",
"' ) W S b b b x b I +.%.R F x x b b b b b b b b b b b b b b b b b b b b b b b b b b b b b b b b b b b b b b b b x e C 3.[.@X).O.6 6 b b b b V V V b b b b b b b ",
"C.m.0.Q k l b p A t._.W.+ R y m b b b b b b b b l j h k b b b b b b b b b b b l j h k b b b b b b b b b k h j l b u v ;.#XI.2.Y s t b b b l j h k c l j h k b b ",
"$XP.v.) j k x d D . Y.}.W.%.9 y b b b b b b b b b V V V b b b b b b b b b b b b V V V b b b b b b b b b V V V b b x b P ,.<.U C N x b b b b b b b b b V V V b b ",
"P.D.h./ j k x 9 D p.^.Y._.+.q y b b b c k k k b ( 5.9.| S j l b b b b b b l b ( 5.9. .J l c b b b c l J  .9.5.( b c b z r r i x b b b b b b b b k l ~ 4.9. .J l ",
"s.0. .J l c b m n $.p.. t.I m N b b b l j h : V 5.V.A.h.W : j b b b b b b j V 5.B.A.k./ j k b b b k j / k.A.B.5.V j b N i i M x b b b b b b b c : k ..N.A.h./ h ",
"S V V b b b b b b n D D A b b b b b b J / ) J H 8.A.P.M...W S b b b b b b h V 9.A.L.n.) j k b b b k j ) n.L.A.9.V h b b b b b b b b b b b b b V J ` d.H.L.c.) g ",
"g h k b b b b b b m 9 d p x b b b k V  .k.n.9.! ] f.M.Z.M.h.| V k b b b b k V  .k.n.q.Q k l b b b l k Q q.n.k. .V k b b b b b b b b b b b l k W 9.m.C.C.m.8.Q j ",
"b b b b b b b b b b x x b b b b b h V 9.A.L.b.) c K ..M.P.A.9.V h b b b b b b J / ) Q S b b b b b b b S Q ) / J b b b b b b b b b b b b b k j ) b.L.H.d._ J V c ",
"b b b b b b b b b c k k l b b b b j V 5.B.A.k./ : - W h.A.B.5.V j b b b b b b l j j k b b b b b b b b b k j h j k l b b b b b b b b b b b k j / k.A.N...k g c b ",
"b b b b b b b b b l j j k b b b b l b ( 5.9. .J k h S | 9.5.( b l b b b b b b c k k l b b b b b b b b b l k j h j k b b b b b b b b b b b c l J  .9.4.~ l k b b ",
"b b b b b b b b b J / ) Q S b b b b b b V V V b b b b V V V b b b b b b b b b b b b b b b b b b b b b b b b J / ) W V c c b b b b b b b b b b b V V V b b b b b ",
"g h k b b b b k V  .k.n.q.Q k l b b b l j h k b b b b k h j l b b b b b b b b b b b b b b b b b b b b b k V  .k.b.9.J ; ; h k b b b b b b l j h g h j l b b b b ",
"S V V b b b b h V 9.A.L.n.) j k b b b b b b b b b b b b b b b b b b b b b b b b b b b b b b b b b b b b h V 9.A.L.m.` l b V V b b b b b b b V V V b b b b b b b ",
"s.0. .J k k k g V 5.B.A.k./ k l x m y y N b b b b b b b b b b b b b b b b b b b b b b b b b b b b b b b j V 4.N.G.V.d.e.r.0.| J l c b l b ( 5.9. .J l c b b b b ",
"P.D.h./ h g j j b ( 5.9. .J c c x y 9 q m b b b b b b b b b b b b b b b b b b b b b b b b b b b b b b b l b ~ ..d.N.J.P.P.F.f./ j k b j V 5.B.A.k./ j k b b b b ",
"$XP.x.) V ! ) Q S b V V V b x x F R %.#.I b x b b b b b b b b b b b b b b b b b b b b b b b b b b b b b b b l k _ x.P.%X%XP.z.) j k b h V 9.A.K.n.) j k b b b b ",
"N.b.7.! { g.v.0.W j h h k b m y T @ R.% -.A p b b b b b b b b b b b b b b b b b b b b b b b b b b b b b b b k g H 6.v.B.B.b.8.W k l b k V  .h.v.0.W k l b b b b ",
"' ) J H 9.D.P.m.) h k b b b p 9 &.Q.XXU.o D d x b b b b b b b b b b b b b b b b b b b b b b b b b b b b b b b c V W ) ' ' ) W S b b b b b J / ) Q S b b b b b b ",
": g - V s.P.$XC.' h k b b b q d *.(.OX X# F a x b b b b b b b b b b b b b b b b b b b b b b b b b b b b b b b b c k g : : g k c b b b b b l h g j c b b b b b b "
};
