/* XPM */
static char *bush_pixel[] = {
/* columns rows colors chars-per-pixel */
"80 80 41 1",
"  c black",
". c #7F6C48",
"X c #258840",
"o c #289245",
"O c #2B9D4A",
"+ c #2EA84F",
"@ c #32A451",
"# c #32AB53",
"$ c #35AE56",
"% c #32B355",
"& c #35B658",
"* c #38B55A",
"= c #39B95B",
"- c #38BC5C",
"; c #3BBF5F",
": c #3CBC5E",
"> c #3FC362",
", c #3EC663",
"< c #5C9A53",
"1 c #62A660",
"2 c #40C062",
"3 c #42C665",
"4 c #42C966",
"5 c #45CC69",
"6 c #44CF6A",
"7 c #48D26D",
"8 c #4BD971",
"9 c #82764D",
"0 c #DA5050",
"q c #E66969",
"w c #868152",
"e c #8D8859",
"r c #8C8B59",
"t c #8C8E5F",
"y c #8F9162",
"u c #929460",
"i c #939465",
"p c #929A6B",
"a c #99A172",
"s c #F38282",
"d c None",
/* pixels */
"dddddddddddddddddddddddddddddddddddddddddddddddddddddddddddddddddddddddddddddddd",
"dddddddddddddddddddddddddddddddddddddddddddddddddddddddddddddddddddddddddddddddd",
"dddddddddddddddddddddddddddddddddddddddddddddddddddddddddddddddddddddddddddddddd",
"dddddddddddddddddddddddddddddddddddddddddddddddddddddddddddddddddddddddddddddddd",
"dddddddddddddddddddddddddddddddddddddddddddddddddddddddddddddddddddddddddddddddd",
"dddddddddddddddddddddddddddddddddddddddddddddddddddddddddddddddddddddddddddddddd",
"dddddddddddddddddddddddddddddddddddddddddddddddddddddddddddddddddddddddddddddddd",
"dddddddddddddddddddddddddddddddddddddddddddddddddddddddddddddddddddddddddddddddd",
"dddddddddddddddddddddddddddddddddddddddddddddddddddddddddddddddddddddddddddddddd",
"dddddddddddddddddddddddddddddddddddddddddddddddddddddddddddddddddddddddddddddddd",
"dddddddddddddddddddddddddddddddddddddddddddddddddddddddddddddddddddddddddddddddd",
"dddddddddddddddddddddddddddddddddddddddddddddddddddddddddddddddddddddddddddddddd",
"dddddddddddddddddddddddddddddddddddddddddddddddddd%%,8888888dddddddddddddddddddd",
"dddddddddddddddddddddddddddddddddddddddddddddddddd%%,8888888dddddddddddddddddddd",
"dddddddddddddddddddddddddddddddddddddddddddddddddd%%,8888888dddddddddddddddddddd",
"ddddddddddddddddddddddddddddddddddddddddddddd88522888888888888522ddddddddddddddd",
"ddddddddddddddddddddddddddddddddddddddddddddd88522888888888888522ddddddddddddddd",
"dddddddddddddddddddddddddddddddddddddddd%%,8888755555555578888522888dddddddddddd",
"dddddddddddddddddddddddddddddddddddddddd%%,8888888222222258888522888dddddddddddd",
"dddddddddddddddddddddddddddddddddddddddd%%,8888888222222258888522888dddddddddddd",
"dddddddddddddddddddd8852288888888dd%%%%%%%,8822=%%22=%%%%%%%22=%%88888dddddddddd",
"dddddddddddddddddddd8852288888888dd%%%%%%%,8822=%%22=%%%%%%%22=%%88888dddddddddd",
"ddddddddddddddddd888553228875555322%%%%%%%;5522:====&%%%%%%%=====55555888ddddddd",
"ddddddddddddddddd888222228852222222%%%%%%%=2222222%%%%%%%%%%%%=2222222888ddddddd",
"ddddddddddddddddd,88222228852222222%%%%%%%=2222222%%%%%%%%%%%%=2222222888ddddddd",
"ddddddddddddddd%%=22%%%%%%%=22%%%%%%%%%%%%=22%%%%%%%%%%%%%%%%%%%%%%=22888ddddddd",
"ddddddddddddddd%%=22%%%%%%%=22%%%%%%%%%%%%=22%%%%%%%%%%%%%%%%%%%%%%=22888ddddddd",
"dddddddddd88888,,455%%%%%%%&==%%%%%,,-%%%%&==%%<wwpp1%%,,;==%%%%%%%&==,,-%%ddddd",
"dddddddddd8888888888%%%%%%%%%%%%%%%88,%%%%%%%%%w00ssp%%88522%%%%%%%%%%%%%%%ddddd",
"dddddddddd8888888888%%%%%%%%%%%%%%%88,%%%%%%%%%w00ssp%%88522%%%%%%%%%%%%%%%ddddd",
"ddddddd2228888822222%%%%%%%,888888888888%%%%%%%w0000w%%22222%%%%%8888888888ddddd",
"ddddddd2228888822222%%%%%%%,888888888888%%%%%%%w0000w%%22222%%%%%8888888888ddddd",
"ddddd88755886,,eeiaa%%-,,,,6885578888888%%%%%%%<wwww<%%22:==,,,,,5578855788888dd",
"ddddd8888888,%%00qss%%,88888882258888888%%%%%%%%%%%%%%%22=%%888882258822588888dd",
"ddddd8888888,%%00qss%%,88888882258888888%%%%%%%%%%%%%%%22=%%888882258822588888dd",
"ddddd8852222=%%000008888822222222222258888,%%88,%%%%%%%%%,8822222222222258888888",
"ddddd8852222=%%000008888822222222222258888,%%88,%%%%%%%%%,8822222222222258888888",
"dd22255322==&%%wweuu8875522:==22:==22355,,,,,,,-%%%%%%%%%;5522222=======;,,55555",
"dd22222222%%%%%%%,888852222=%%22=%%22222%%,88%%%%%%%%%%%%=2222222%%%%%%%%%%22222",
"dd22222222%%%%%%%,888852222=%%22=%%22222%%,88%%%%%%%%%%%%=2222222%%%%%%%%%%22222",
"dd%%%%%,8822=%%%%,88>2=%%%%%%%%%%%%%%%%%22=%%22222%%%%%%%%%%%%%%%%%%%%%%%%%%%=22",
"dd%%%%%,8822=%%%%,8822=%%%%%%%%%%%%%%%%%22=%%22222%%%%%%%%%%%%%%%%%%%%%%%%%%%=22",
"dd%%%%%-,,==&%%%%-,,==&%%wwtpp,,-%%%%%%%==&%%==:22%%%%%%%-,,,,-%%%%%%%%%%%%%%&==",
"dd%%%%%%%%%%%%%%%%%%%%%%%00qss88,%%%%%%%%%%%%%%=22%%%%%%%,8888,%%%%%%%%%%%%%%%%%",
"dd%%%%%%%%%%%%%%%%%%%%%%%00qss88,%%%%%%%%%%%%%%=22%%%%%%%,8888,%%%%%%%%%%%%%%%%%",
"dd%%%%%%%%8888888888%%%%%00000%%%%%%%%%%%%%%%%%%%%%%%%%888888888888,%%%%%%%%%%%%",
"dd%%%%%%%%8888888888%%%%%00000%%%%%%%%%%%%%%%%%%%%%%%%%888888888888,%%%%%%%%%%%%",
"%%%%%,,,,,8888855788,,-%%wwwww%%%%%%%%%%%%%%%%%%%%,,,,,5555555788886,,,,-%%%%%%%",
"%%%%%88888888882258888,%%%%%%%%%%%%%%%%%%%%%%%%%%%8888822222225888888888,%%%%%dd",
"%%%%%88888888882258888,%%%%%%%%%%%%%%%%%%%%%%%%%%%8888822222225888888888,%%%%%dd",
"%%%%%8852222=%%%%=2222=%%%%%%%%%%%%%%%%%%%%%%%%,888852222=%%22=%%2222288888%%%dd",
"%%%%%8852222=%%%%=2222=%%%%%%%%%%%%%%%%%%%%%%%%,888852222=%%22=%%2222288888%%%dd",
"%%%%%55322==&%%%%#@@@@#%%,,-%%%%%%%%%%%%%%%%%%%;5555>==eeypp=====2222255788%%%dd",
"%%%%%22222%%%%%%%OXXXXO%%88,%%%%%%%%%%%%%%%%%%%=2222=%%00qss%%=222222222588ddddd",
"%%%%%22222%%%%%%%OXXXXO%%88,%%%%%%%%%%%%%%%%%%%=2222=%%00qss%%=222222222588ddddd",
"%%%%%XXO%%%%%%%%%%%%XXXXXXXO%%%%%%%%%%%%%%%%%%%%%%XXXXX00000%%%%%8852222222ddddd",
"%%%%%XXO%%%%%%%%%%%%XXXXXXXO%%%%%%%%%%%%%%%%%%%%%%XXXXX00000%%%%%8852222222ddddd",
"OO+%%XXoOO%%%%%%%%%%OOoXXXXoOOOOOOO%%+OOOO+%%%%+OOXXXXX..9ww%%%%%,,*@@==$@@ddddd",
"XXO%%XXXXX%%%%%%%%%%%%OXXXXXXXXXXXX%%OXXXXO%%%%OXXXXXXXXXO%%%%%%%%%OXX%%OXXddddd",
"XXO%%XXXXX%%%%%%%%%%%%OXXXXXXXXXXXX%%OXXXXO%%%%OXXXXXXXXXO%%%%%%%%%OXX%%OXXddddd",
"XXXXXXXXXXXXO%%%%%%%%%%%%XXXXXXXXXXXXXXXXXXXX%%OXXXXXXX%%%%%%%%%%%%OXXXXXXXddddd",
"XXXXXXXXXXXXO%%%%%%%%%%%%XXXXXXXXXXXXXXXXXXXX%%OXXXXXXX%%%%%%%%%%%%OXXXXXXXddddd",
"XXXXXXXXXXXXoOO%%+OO%%%%%OOoXXXXXXXXXXXXXXXXXOOoXXXXXXX%%%%%OOOOO%%OXXXXXXXddddd",
"ddXXXXXXXXXXXXX%%OXX%%%%%%%OXXXXXXXXXXXXXXXXXXXXXXXXXXX%%%%%XXXXX%%OXXXXXddddddd",
"ddXXXXXXXXXXXXX%%OXX%%%%%%%OXXXXXXXXXXXXXXXXXXXXXXXXXXX%%%%%XXXXX%%OXXXXXddddddd",
"dddddXXXXXXXXXXXXXXX%%%%%XXXXXXXXXXXXXXXXXXXXXXXXXXXO%%%%%%%XXXXXXXXXXdddddddddd",
"dddddXXXXXXXXXXXXXXX%%%%%XXXXXXXXXXXXXXXXXXXXXXXXXXXO%%%%%%%XXXXXXXXXXdddddddddd",
"dddddXXXXXXXXXXXXXXXOOOOOXXXXXXXXXXXXXXXXXXXXXXXXXXXoOOOOOOOXXXXXXXXXXdddddddddd",
"ddddddddddddXXXXXXXXXXXXXXXXXXXXXXXXXXXXXXXXXXXXXXXXXXXXXXXXXXXXXXXXdddddddddddd",
"ddddddddddddXXXXXXXXXXXXXXXXXXXXXXXXXXXXXXXXXXXXXXXXXXXXXXXXXXXXXXXXdddddddddddd",
"dddddddddddddddddddddddddddddddddddddddddddddddddddddddddddddddddddddddddddddddd",
"dddddddddddddddddddddddddddddddddddddddddddddddddddddddddddddddddddddddddddddddd",
"dddddddddddddddddddddddddddddddddddddddddddddddddddddddddddddddddddddddddddddddd",
"dddddddddddddddddddddddddddddddddddddddddddddddddddddddddddddddddddddddddddddddd",
"dddddddddddddddddddddddddddddddddddddddddddddddddddddddddddddddddddddddddddddddd",
"dddddddddddddddddddddddddddddddddddddddddddddddddddddddddddddddddddddddddddddddd",
"dddddddddddddddddddddddddddddddddddddddddddddddddddddddddddddddddddddddddddddddd",
"dddddddddddddddddddddddddddddddddddddddddddddddddddddddddddddddddddddddddddddddd",
"dddddddddddddddddddddddddddddddddddddddddddddddddddddddddddddddddddddddddddddddd",
"dddddddddddddddddddddddddddddddddddddddddddddddddddddddddddddddddddddddddddddddd"
};
