/* XPM */
static char *exit_pixel[] = {
/* columns rows colors chars-per-pixel */
"80 80 33 1",
"  c black",
". c #6C3A0F",
"X c #774214",
"o c #8A200B",
"O c #A80707",
"+ c #A41A0F",
"@ c #B30D0D",
"# c #BE1414",
"$ c #A13115",
"% c #BD3C13",
"& c #834A19",
"* c #8F521E",
"= c #9B5B24",
"- c #C91A1A",
"; c #D03A1E",
": c #D52121",
"> c #D52121",
", c #D54D21",
"< c #D52121",
"1 c #C86C1A",
"2 c #D52121",
"3 c #D57A21",
"4 c #D52121",
"5 c #D52121",
"6 c #D29B20",
"7 c #D5A721",
"8 c #D52121",
"9 c #D52121",
"0 c #D52121",
"q c #D5D421",
"w c #D52121",
"e c #D52121",
"r c None",
/* pixels */
"rrrrrrrrrrrrrrrrrrrrrrrrrrrrrrrrrrrrrrrrrr===.....rrrrrrrrrrrrrrrrrrrrrrrrrrrrrr",
"rrrrrrrrrrrrrrrrrrrrrrrrrrrrrrrrrrrrrrrrrr===.....rrrrrrrrrrrrrrrrrrrrrrrrrrrrrr",
"rrrrrrrrrrrrrrrrrrrrrrrrrrrrrrrrrrrrrrrr==*&&.....rrrrrrrrrrrrrrrrrrrrrrrrrrrrrr",
"rrrrrrrrrrrrrrrrrrrrrrrrrrrrrrrrrrrrrrrr==&.....rrrrrrrrrrrrrrrrrrrrrrrrrrrrrrrr",
"rrrrrrrrrrrrrrrrrrrrrrrrrrrrrrrrrrrrrrrr==&.....rrrrrrrrrrrrrrrrrrrrrrrrrrrrrrrr",
"rrrrrrrrrrrrrrrrrrrrrrrrrrrrrrrrrrrrrrrr==&..rrrrrrrrrrrrrrrrrrrrrrrrrrrrrrrrrrr",
"rrrrrrrrrrrrrrrrrrrrrrrrrrrrrrrrrrrrrrrr==&..rrrrrrrrrrrrrrrrrrrrrrrrrrrrrrrrrrr",
"rrrrrrrrrrrrrrrrrrrrrrrrrrrrrrrrrrrrr===&&X..rrrrrrrrrrrrrrrrrrrrrrrrrrrrrrrrrrr",
"rrrrrrrrrrrrrrrrrrrrrrrrrrrrrrrrrrrrr===.....rrrrrrrrrrrrrrrrrrrrrrrrrrrrrrrrrrr",
"rrrrrrrrrrrrrrrrrrrrrrrrrrrrrrrrrrrrr===.....rrrrrrrrrrrrrrrrrrrrrrrrrrrrrrrrrrr",
"rrrrrrrrrrrrrrrrrrrrrrrrrrrrrrrrrrrrr===...rrrrrrrrrrrrrrrrrrrrrrrrrrrrrrrrrrrrr",
"rrrrrrrrrrrrrrrrrrrrrrrrrrrrrrrrrrrrr===...rrrrrrrrrrrrrrrrrrrrrrrrrrrrrrrrrrrrr",
"rrrrrrrrrrrrrrrrrrrrrr::::::::OOOOOrr===...rrOOOOO:::::::::::::rrrrrrrrrrrrrrrrr",
"rrrrrrrrrrrrrrrrrrrrrr::::::::OOOOOrr===...rrOOOOO:::::::::::::rrrrrrrrrrrrrrrrr",
"rrrrrrrrrrrrrrrrrrrrrr::::::::OOOOOrr$==..orrOOOOO:::::::::::::rrrrrrrrrrrrrrrrr",
"rrrrrrrrrrrrrrr:::::::::::::::::#OOOOo..OOOOOOOOOO::::::::::::::::::rrrrrrrrrrrr",
"rrrrrrrrrrrrrrr:::::::::::::::::#OOOOo..OOOOOOOOOO::::::::::::::::::rrrrrrrrrrrr",
"rrrrrrrrrr::::::::::::::::::::::-####+ooOOOOO#####::::::::::::::::::::rrrrrrrrrr",
"rrrrrrrrrr:::::::::::::::::::::::::::#OOOOOOO:::::::::::::::::::::::::rrrrrrrrrr",
"rrrrrrrrrr:::::::::::::::::::::::::::#OOOOOOO:::::::::::::::::::::::::rrrrrrrrrr",
"rrrrrrr::::::::::3qqqqqqqqq3::qq3:::::::qq3::qq3::qqqqqqqqqqqq3::::::::::rrrrrrr",
"rrrrrrr::::::::::3qqqqqqqqq3::qq3:::::::qq3::qq3::qqqqqqqqqqqq3::::::::::rrrrrrr",
"rrrrr::::::::::::3qq3333333,::33333::,3333,::qq3::33333qq73333,::::::::::::rrrrr",
"rrrrr::::::::::::3qq::::::::::::3qq::3qq:::::qq3:::::::qq3:::::::::::::::::rrrrr",
"rrrrr::::::::::::3qq::::::::::::3qq::3qq:::::qq3:::::::qq3:::::::::::::::::rrrrr",
"rrrrr::::::::::::3qqqqqqqqq3:::::::qq3:::::::qq3:::::::qq3:::::::::::::::::rrrrr",
"rrrrr::::::::::::3qqqqqqqqq3:::::::qq3:::::::qq3:::::::qq3:::::::::::::::::rrrrr",
"rr:::::::::::::::3qq3333333,::::,3333333:::::qq3:::::::qq3::::::::::::::::::::rr",
"rr:::::::::::::::3qq::::::::::::3qq::3qq:::::qq3:::::::qq3::::::::::::::::::::rr",
"rr:::::::::::::::3qq::::::::::::3qq::3qq:::::qq3:::::::qq3::::::::::::::::::::rr",
"rr:::::::::::::::3qqqqqqqqq3::qq3:::::::qq3::qq3:::::::qq3::::::::::::::::::::rr",
"rr:::::::::::::::3qqqqqqqqq3::qq3:::::::qq3::qq3:::::::qq3::::::::::::::::::::rr",
"rr:::::::::::::::,333333333,::33,:::::::33,::33,:::::::33,::::::::::::::::::::rr",
"rr::::::::::::::::::::::::::::::::::::::::::::::::::::::::::::::::::::::::::::rr",
"rr::::::::::::::::::::::::::::::::::::::::::::::::::::::::::::::::::::::::::::rr",
"::::::::::::::::::::::::::::::::>5555555eeeeeee4::::::::::::::::::::::::::::::::",
"::::::::::::::::::::::::::::::::>5555555eeeeeee4::::::::::::::::::::::::::::::::",
":::::::::::::::::::::::::::;>>>>1555555599999ee04444<:::::::::::::::::::::::::::",
":::::::::::::::::::::::::::>55555555555555555eeeeeee4:::::::::::::::::::::::::::",
":::::::::::::::::::::::::::>55555555555555555eeeeeee4:::::::::::::::::::::::::::",
":::::::::::::::::::::::::55555555555555555555eeeeeeeeee:::::::::::::::::::::::::",
":::::::::::::::::::::::::55555555555555555555eeeeeeeeee:::::::::::::::::::::::::",
"::::::::::::::::::::::;>>5555555555555555555599weeeeeee44<::::::::::::::::::::::",
"::::::::::::::::::::::>5555555555555555555555559eeeeeeeee4::::::::::::::::::::::",
"::::::::::::::::::::::>5555555555555555555555559eeeeeeeee4::::::::::::::::::::::",
"::::::::::::::::::::::>555555555555555555555555555eeeeeee4::::::::::::::::::::::",
"::::::::::::::::::::::>555555555555555555555555555eeeeeee4::::::::::::::::::::::",
"::::::::::::::::::::>>1555555555555555555555555555eeeeeee044:::::::::::::::##-::",
"::::::::::::::::::::555555555555555555555555555555eeeeeeeeee:::::::::::::::OO#::",
"::::::::::::::::::::555555555555555555555555555555eeeeeeeeee:::::::::::::::OO#::",
"rr::::::::::::::::::555555555555555555555555555555eeeeeeeeee:::::::::::::::OOOrr",
"rr::::::::::::::::::555555555555555555555555555555eeeeeeeeee:::::::::::::::OOOrr",
"rr::::::::::::::::::555555555555555555555555555555eeeeeeeeee:::::::::::::::OOOrr",
"rr::::::::::::::::::555555555555555555555555555555eeeeeeeeee:::::::::::::::OOOrr",
"rr::::::::::::::::::555555555555555555555555555555eeeeeeeeee:::::::::::::::OOOrr",
"rr::::::::::::::::::5555555555555555555555555559eeeeeeeeeeee::::::::::::#OOOOOrr",
"rr::::::::::::::::::5555555555555555555555555559eeeeeeeeeeee::::::::::::#OOOOOrr",
"rr::::::::::::::::::5555555555555555555555555559eeeeeeeeeeee::::::::::##@OOOOOrr",
"rrrrr:::::::::::::::5555555555555555555555555559eeeeeeeeeeee::::::::::OOOOOOOOrr",
"rrrrr:::::::::::::::5555555555555555555555555559eeeeeeeeeeee::::::::::OOOOOOOOrr",
"rrrrr:::::::::::::::5555555555555555555555555eeeeeeeeeeeeeee:::::OO#::OOOOOrrrrr",
"rrrrr:::::::::::::::5555555555555555555555555eeeeeeeeeeeeeee:::::OO#::OOOOOrrrrr",
"rrrrr:::::::::::::::>>15555555555555555555699eeeeeeeeeeee044:::::OO@##OOOOOrrrrr",
"rrrrr:::::::::::::::::>55555555555555555559eeeeeeeeeeeeee4:::::::OOOOOOOOOOrrrrr",
"rrrrr:::::::::::::::::>55555555555555555559eeeeeeeeeeeeee4:::::::OOOOOOOOOOrrrrr",
"rrrrrrr:::::::::::::::>55555555555555555eeeeeeeeeeeeeeeee4::::#OOOOOOOOOOrrrrrrr",
"rrrrrrr:::::::::::::::>55555555555555555eeeeeeeeeeeeeeeee4::::#OOOOOOOOOOrrrrrrr",
"rrrrrrr:::::::::::::::;>>999999999999999eeeeeeeeeeeeeee44<::##@OOOOOOOOOOrrrrrrr",
"rrrrrrrrrr:::::::::::::::eeeeeeeeeeeeeeeeeeeeeeeeeeeeee:::::OOOOOOOOOOrrrrrrrrrr",
"rrrrrrrrrr:::::::::::::::eeeeeeeeeeeeeeeeeeeeeeeeeeeeee:::::OOOOOOOOOOrrrrrrrrrr",
"rrrrrrrrrrrr:::OOOOO:::::::4eeeeeeeeeeeeeeeeeeeeeeee2OOOOOOOOOOOOOOOrrrrrrrrrrrr",
"rrrrrrrrrrrr:::OOOOO:::::::4eeeeeeeeeeeeeeeeeeeeeeee2OOOOOOOOOOOOOOOrrrrrrrrrrrr",
"rrrrrrrrrrrr:::OOOOO#####::<44440eeeeeeeeeeeeee82222%OOOOOOOOOOOOOOOrrrrrrrrrrrr",
"rrrrrrrrrrrrrrrrrOOOOOOOO:::::::4eeeeeeeeeeeeee2OOOOOOOOOOOOOOOrrrrrrrrrrrrrrrrr",
"rrrrrrrrrrrrrrrrrOOOOOOOO:::::::4eeeeeeeeeeeeee2OOOOOOOOOOOOOOOrrrrrrrrrrrrrrrrr",
"rrrrrrrrrrrrrrrrrrrrrrOOOOOOOO::#OOOOOOOOOOOOOOOOOOOOOOOOOOOrrrrrrrrrrrrrrrrrrrr",
"rrrrrrrrrrrrrrrrrrrrrrOOOOOOOO::#OOOOOOOOOOOOOOOOOOOOOOOOOOOrrrrrrrrrrrrrrrrrrrr",
"rrrrrrrrrrrrrrrrrrrrrrOOOOOOOO##@OOOOOOOOOOOOOOOOOOOOOOOOOOOrrrrrrrrrrrrrrrrrrrr",
"rrrrrrrrrrrrrrrrrrrrrrrrrrrOOOOOOOOOOOOOOOOOOOOOOOOOOOOrrrrrrrrrrrrrrrrrrrrrrrrr",
"rrrrrrrrrrrrrrrrrrrrrrrrrrrOOOOOOOOOOOOOOOOOOOOOOOOOOOOrrrrrrrrrrrrrrrrrrrrrrrrr"
};
