/* XPM */
static char *Minie_pixel_B[] = {
/* columns rows colors chars-per-pixel */
"80 70 30 1",
"  c black",
". c #545F0A",
"X c #626E0A",
"o c #69760A",
"O c #707E0A",
"+ c #77860B",
"@ c #7E8E0B",
"# c #7C8625",
"$ c red",
"% c #85960B",
"& c #899406",
"* c #97A307",
"= c #93A60C",
"- c #9DAF0A",
"; c #A5B307",
": c #A8B909",
"> c #B0BE34",
", c #B3C308",
"< c #BECD06",
"1 c #D6A804",
"2 c #F8A900",
"3 c #D4E004",
"4 c #F5FE00",
"5 c #CED65C",
"6 c #D8DE69",
"7 c #E4EA59",
"8 c #EFF458",
"9 c #E2E676",
"0 c #ECEF84",
"q c None",
/* pixels */
"qqqqqqqqqqqqqqqqqqqqqqqqqqqqqqqqq$$$$$$$$$$$$$$qqqqqqqqqqqqqqqqqqqqqqqqqqqqqqqqq",
"qqqqqqqqqqqqqqqqqqqqqqqqqqqqqqqqq$$$$$$$$$$$$$$qqqqqqqqqqqqqqqqqqqqqqqqqqqqqqqqq",
"qqqqqqqqqqqqqqqqqqqqqqqqqqqqqqqqq$$$$$$$$$$$$$$qqqqqqqqqqqqqqqqqqqqqqqqqqqqqqqqq",
"qqqqqqqqqqqqqqqqqqqqqqqqqqqqqq===12222222222221===qqqqqqqqqqqqqqqqqqqqqqqqqqqqqq",
"qqqqqqqqqqqqqqqqqqqqqqqqqqqqqq===34444444444443===qqqqqqqqqqqqqqqqqqqqqqqqqqqqqq",
"qqqqqqqqqqqqqqqqqqqqqqqqqqqqqq===34444444444443===qqqqqqqqqqqqqqqqqqqqqqqqqqqqqq",
"qqqqqqqqqqqqqqqqqqqqqqqqqq=======<333333333333<=======qqqqqqqqqqqqqqqqqqqqqqqqqq",
"qqqqqqqqqqqqqqqqqqqqqqqqqq============================qqqqqqqqqqqqqqqqqqqqqqqqqq",
"qqqqqqqqqqqqqqqqqqqqqqqqqq============================qqqqqqqqqqqqqqqqqqqqqqqqqq",
"qqqqqqqqqqqqqqqqqqqqqqqqqq============================qqqqqqqqqqqqqqqqqqqqqqqqqq",
"qqqqqqqqqqqqqqqqqqqqqqq==================================qqqqqqqqqqqqqqqqqqqqqqq",
"qqqqqqqqqqqqqqqqqqqqqqq==================================qqqqqqqqqqqqqqqqqqqqqqq",
"qqqqqqqqqqqqqqqqqqqqqqq==================================qqqqqqqqqqqqqqqqqqqqqqq",
"qqqqqqqqqqqqqqqqqqqq========================================qqqqqqqqqqqqqqqqqqqq",
"qqqqqqqqqqqqqqqqqqqq========================================qqqqqqqqqqqqqqqqqqqq",
"qqqqqqqqqqqqqqqqqqqq========================================qqqqqqqqqqqqqqqqqqqq",
"qqqqqqqqqqqqqqqqqqqq,,,,,,:==========================:,,,,,,qqqqqqqqqqqqqqqqqqqq",
"qqqqqqqqqqqqqqqqqqqq4444443==========================3444444qqqqqqqqqqqqqqqqqqqq",
"qqqqqqqqqqqqqqqqqqqq4444443==========================3444444qqqqqqqqqqqqqqqqqqqq",
"qqqqqqqqqqqqqqqqqqqq4444443==========================3444444qqqqqqqqqqqqqqqqqqqq",
"qqqqqqqqqqqqqqqq==========,44444444444444444444444444,==========qqqqqqqqqqqqqqqq",
"qqqqqqqqqqqqqqqq==========,44444444444444444444444444,==========qqqqqqqqqqqqqqqq",
"qqqqqqqqqqqqqqqq==========,44444444444444444444444444,==========qqqqqqqqqqqqqqqq",
"qqqqqqqqqqqqqqqq==========-,,,,,,*&&*,,,,,,,,,;&&&,,,-==========qqqqqqqqqqqqqqqq",
"qqqqqqqqqqqqqqqq=================o..o=========@...==============qqqqqqqqqqqqqqqq",
"qqqqqqqqqqqqqqqq=================o..o=========@...==============qqqqqqqqqqqqqqqq",
"qqqqqqqqqqqqq====================+ooO@@@===%@@+ooo=================qqqqqqqqqqqqq",
"qqqqqqqqqqqqq=======================@...===o..o====================qqqqqqqqqqqqq",
"qqqqqqqqqqqqq=======================@...===o..o====================qqqqqqqqqqqqq",
"qqqqqqqqqqqqq=======================@...===o..o====================qqqqqqqqqqqqq",
"qqqqqqqqqqqqq===========================...@=======================qqqqqqqqqqqqq",
"qqqqqqqqqqqqq===========================...@=======================qqqqqqqqqqqqq",
"qqqqqqqqqqqqq===========================...@=======================qqqqqqqqqqqqq",
"qqqqqqqqqqqqq===========================...@=======================qqqqqqqqqqqqq",
"qqqqqqqqqqqqq===========================...@=======================qqqqqqqqqqqqq",
"qqqqqqqqqqqqq===========================...@=======================qqqqqqqqqqqqq",
"qqqqqqqqqqqqq===========================...@=======================qqqqqqqqqqqqq",
"qqqqqqqqqqqqq===========================...@=======================qqqqqqqqqqqqq",
"qqqqqqqqqqqqq===========================...@=======================qqqqqqqqqqqqq",
"qqqqqqqqqqqqq===========================...@=======================qqqqqqqqqqqqq",
"qqqqqqqqqqqqq===========================...@=======================qqqqqqqqqqqqq",
"qqqqqqqqqqqqq===========================...@=======================qqqqqqqqqqqqq",
"qqqqqqqqqqqqq===========================...@=======================qqqqqqqqqqqqq",
"qqqqqqqqqqqqqooo+=======================...@===================+oooqqqqqqqqqqqqq",
"qqqqqqqqqqqqq...o=======================...@===================o...qqqqqqqqqqqqq",
"qqqqqqqqqqqqq...o=======================...@===================o...qqqqqqqqqqqqq",
"qqqqqqqqqqqqq...X@@@====================...@================@@@X...qqqqqqqqqqqqq",
"qqqqqqqqqqqqqqqq....====================...@================....qqqqqqqqqqqqqqqq",
"qqqqqqqqqqqqqqqq....====================...@================....qqqqqqqqqqqqqqqq",
"qqqqqqqqqqqqqqqq....====================...@================....qqqqqqqqqqqqqqqq",
"qqqqqqqqqqqqqqqqqqqq..........======>000===5005======o......qqqqqqqqqqqqqqqqqqqq",
"qqqqqqqqqqqqqqqqqqqq..........======>000===5005======o......qqqqqqqqqqqqqqqqqqqq",
"qqqqqqqqqqqqqqqqqqqq..........======>000===5005======o......qqqqqqqqqqqqqqqqqqqq",
"qqqqqqqqqqqqqqqqqqqq..........55555560003337009555555#......qqqqqqqqqqqqqqqqqqqq",
"qqqqqqqqqqqqqqqqqqqqqqqqqqqqqq000000000044480000000000qqqqqqqqqqqqqqqqqqqqqqqqqq",
"qqqqqqqqqqqqqqqqqqqqqqqqqqqqqq000000000044480000000000qqqqqqqqqqqqqqqqqqqqqqqqqq",
"qqqqqqqqqqqqqqqqqqqqqqqqqqqqqq000000000044480000000000qqqqqqqqqqqqqqqqqqqqqqqqqq",
"qqqqqqqqqqqqqqqqqqqqqqqqqqqqqqqqq00000004448000000qqqqqqqqqqqqqqqqqqqqqqqqqqqqqq",
"qqqqqqqqqqqqqqqqqqqqqqqqqqqqqqqqq00000004448000000qqqqqqqqqqqqqqqqqqqqqqqqqqqqqq",
"qqqqqqqqqqqqqqqqqqqqqqqqqqqqqqqqq00000004448000000qqqqqqqqqqqqqqqqqqqqqqqqqqqqqq",
"qqqqqqqqqqqqqqqqqqqqqqqqqqqqqqqqq44444444444444qqqqqqqqqqqqqqqqqqqqqqqqqqqqqqqqq",
"qqqqqqqqqqqqqqqqqqqqqqqqqqqqqqqqq44444444444444qqqqqqqqqqqqqqqqqqqqqqqqqqqqqqqqq",
"qqqqqqqqqqqqqqqqqqqqqqqqqqqqqqqqq44444444444444qqqqqqqqqqqqqqqqqqqqqqqqqqqqqqqqq",
"qqqqqqqqqqqqqqqqqqqqqqqqqqqqqqqqq44444444444444qqqqqqqqqqqqqqqqqqqqqqqqqqqqqqqqq",
"qqqqqqqqqqqqqqqqqqqqqqqqqqqqqqqqqqqq44444444444qqqqqqqqqqqqqqqqqqqqqqqqqqqqqqqqq",
"qqqqqqqqqqqqqqqqqqqqqqqqqqqqqqqqqqqq44444444444qqqqqqqqqqqqqqqqqqqqqqqqqqqqqqqqq",
"qqqqqqqqqqqqqqqqqqqqqqqqqqqqqqqqqqqq44444444444qqqqqqqqqqqqqqqqqqqqqqqqqqqqqqqqq",
"qqqqqqqqqqqqqqqqqqqqqqqqqqqqqqqqqqqq44444444qqqqqqqqqqqqqqqqqqqqqqqqqqqqqqqqqqqq",
"qqqqqqqqqqqqqqqqqqqqqqqqqqqqqqqqqqqq44444444qqqqqqqqqqqqqqqqqqqqqqqqqqqqqqqqqqqq",
"qqqqqqqqqqqqqqqqqqqqqqqqqqqqqqqqqqqq44444444qqqqqqqqqqqqqqqqqqqqqqqqqqqqqqqqqqqq"
};
