/* XPM */
static char *Minie_pixel_F[] = {
/* columns rows colors chars-per-pixel */
"80 70 56 1",
"  c black",
". c #313704",
"X c #3F402A",
"o c #515400",
"O c #545F0A",
"+ c #7A4905",
"@ c #626E08",
"# c #69760A",
"$ c #555555",
"% c #728109",
"& c #77860B",
"* c #7E8E0B",
"= c #778416",
"- c #AA0000",
"; c #AB3D1D",
": c #966621",
"> c #B76E08",
", c #C61C1C",
"< c #DB3704",
"1 c red",
"2 c #F02A1C",
"3 c #FA351D",
"4 c #E9402A",
"5 c #F84F2C",
"6 c #DA6A46",
"7 c #FF5555",
"8 c #E57547",
"9 c #FA7A5A",
"0 c #85960B",
"q c #8C9E0B",
"w c #939E05",
"e c #93A108",
"r c #93A60C",
"t c #9DAF0A",
"y c #AB8109",
"u c #A99C1D",
"i c #A8B909",
"p c #A1AE32",
"a c #AFB758",
"s c #B3C308",
"d c #BFC903",
"f c #BECD06",
"g c #BEC07F",
"h c #D78840",
"j c #D38054",
"k c #F29F58",
"l c #C9D605",
"z c #D4E004",
"x c #F5FE00",
"c c #F5EC31",
"v c #F8AF80",
"b c #DCDF82",
"n c #F7CA93",
"m c #ECEF84",
"M c gray100",
"N c None",
/* pixels */
"NNNNNNNNNNNNNNNNNNNNNNNNNNNNNNNNN11111111111111NNNNNNNNNNNNNNNNNNNNNNNNNNNNNNNNN",
"NNNNNNNNNNNNNNNNNNNNNNNNNNNNNNNNN11111111111111NNNNNNNNNNNNNNNNNNNNNNNNNNNNNNNNN",
"NNNNNNNNNNNNNNNNNNNNNNNNNNNNNNNNN11111111111111NNNNNNNNNNNNNNNNNNNNNNNNNNNNNNNNN",
"NNNNNNNNNNNNNNNNNNNNNNNNNNNNNNrrr<111111111111<rrrNNNNNNNNNNNNNNNNNNNNNNNNNNNNNN",
"NNNNNNNNNNNNNNNNNNNNNNNNNNNNNNrrr<111111111111<rrrNNNNNNNNNNNNNNNNNNNNNNNNNNNNNN",
"NNNNNNNNNNNNNNNNNNNNNNNNNNNNNNrrr<111111111111<rrrNNNNNNNNNNNNNNNNNNNNNNNNNNNNNN",
"NNNNNNNNNNNNNNNNNNNNNNNNNNrrrrrrr<111111111111<rrrrrrrNNNNNNNNNNNNNNNNNNNNNNNNNN",
"NNNNNNNNNNNNNNNNNNNNNNNNNNrrrrrrr<111111111111<rrrrrrrNNNNNNNNNNNNNNNNNNNNNNNNNN",
"NNNNNNNNNNNNNNNNNNNNNNNNNNrrrrrrr<111111111111<rrrrrrrNNNNNNNNNNNNNNNNNNNNNNNNNN",
"NNNNNNNNNNNNNNNNNNNNNNNNNN<rrrrrr<111111111111<rrrrrr<NNNNNNNNNNNNNNNNNNNNNNNNNN",
"NNNNNNNNNNNNNNNNNNNNNNN111-   MMM7111111111111-   MMM7111NNNNNNNNNNNNNNNNNNNNNNN",
"NNNNNNNNNNNNNNNNNNNNNNN111-   MMM7111111111111-   MMM7111NNNNNNNNNNNNNNNNNNNNNNN",
"NNNNNNNNNNNNNNNNNNNNNNN111-   MMM7111111111111-   MMM7111NNNNNNNNNNNNNNNNNNNNNNN",
"NNNNNNNNNNNNNNNNNNNNrrry>>+   $$$,112jjjkkk311-   $$$:>>yrrrNNNNNNNNNNNNNNNNNNNN",
"NNNNNNNNNNNNNNNNNNNNrrrrrr@      -114gggmmm511-      @rrrrrrNNNNNNNNNNNNNNNNNNNN",
"NNNNNNNNNNNNNNNNNNNNrrrrrr@      -114gggmmm511-      @rrrrrrNNNNNNNNNNNNNNNNNNNN",
"NNNNNNNNNNNNNNNNNNNNrrrrrr%......;446gggbbb844;......%rrrrrrNNNNNNNNNNNNNNNNNNNN",
"NNNNNNNNNNNNNNNNNNNNrrrrrrrrrrrrraggggggggggggarrrrrrrrrrrrrNNNNNNNNNNNNNNNNNNNN",
"NNNNNNNNNNNNNNNNNNNNrrrrrrrrrrrrraggggggggggggarrrrrrrrrrrrrNNNNNNNNNNNNNNNNNNNN",
"NNNNNNNNNNNNNNNNNNNNrrrrrrrrrrrrraggggggggggggarrrrrrrrrrrrrNNNNNNNNNNNNNNNNNNNN",
"NNNNNNNNNNNNNNNNrrrrrrrrrrrrrrrrrrrrpggggggprrrrrrrrrrrrrrrrrrrrNNNNNNNNNNNNNNNN",
"NNNNNNNNNNNNNNNNrrrrrrrrrrrrrrrrrrrrpggggggprrrrrrrrrrrrrrrrrrrrNNNNNNNNNNNNNNNN",
"NNNNNNNNNNNNNNNNrrrrrrrrrrrrrrrrrrrrpggggggprrrrrrrrrrrrrrrrrrrrNNNNNNNNNNNNNNNN",
"NNNNNNNNNNNNNNNNzzzzrrrrrrrrrrrrrrrr=XXXXXX=rrrrrrrrrrrrrrrrzzzzNNNNNNNNNNNNNNNN",
"NNNNNNNNNNNNNNNNxxxxrrrrrrrrrrrrrrrr@      @rrrrrrrrrrrrrrrrxxxxNNNNNNNNNNNNNNNN",
"NNNNNNNNNNNNNNNNxxxxrrrrrrrrrrrrrrrr@      @rrrrrrrrrrrrrrrrxxxxNNNNNNNNNNNNNNNN",
"NNNNNNNNNNNNNrrrizzzssstrrrrrrrrrisswoooooowssirrrrrrrrrtssszzzirrrNNNNNNNNNNNNN",
"NNNNNNNNNNNNNrrrrrrrxxxsrrrrrrrrrzxxxxxxxxxxxxzrrrrrrrrrsxxxrrrrrrrNNNNNNNNNNNNN",
"NNNNNNNNNNNNNrrrrrrrxxxsrrrrrrrrrzxxxxxxxxxxxxzrrrrrrrrrsxxxrrrrrrrNNNNNNNNNNNNN",
"NNNNNNNNNNNNNrrrrrrrxxxsrrrrrrrrrzxxxxxxxxxxxxzrrrrrrrrrsxxxrrrrrrrNNNNNNNNNNNNN",
"NNNNNNNNNNNNNrrrrrrrOOOdxxxxxxxxxxxxxxxxxxxxxxxxxxxxxxxxdOOOrrrrrrrNNNNNNNNNNNNN",
"NNNNNNNNNNNNNrrrrrrrOOOdxxxxxxxxxxxxxxxxxxxxxxxxxxxxxxxxdOOOrrrrrrrNNNNNNNNNNNNN",
"NNNNNNNNNNNNNrrrrrrrOOOdxxxxxxxxxxxxxxxxxxxxxxxxxxxxxxxxdOOOrrrrrrrNNNNNNNNNNNNN",
"NNNNNNNNNNrrrrrrrrrrOOOesslxxxxxxxxxxxxxxxxxxxxxxxxxxlsseOOOrrrrrrrrrrNNNNNNNNNN",
"NNNNNNNNNNrrrrrrrrrrOOO*rrsxxxxxxxxxxxxxxxxxxxxxxxxxxsrr*OOOrrrrrrrrrrNNNNNNNNNN",
"NNNNNNNNNNrrrrrrrrrrOOO*rrsxxxxxxxxxxxxxxxxxxxxxxxxxxsrr*OOOrrrrrrrrrrNNNNNNNNNN",
"NNNNNNNNNNrrrrrrrrrrOOO*rrizzzxxxxxxxxxxxxxxxxxxxxzzzirr*OOOrrrrrrrrrrNNNNNNNNNN",
"NNNNNNNNNNrrrrrrrrrrOOO*rrrrrrxxxxxxxxxxxxxxxxxxxxrrrrrr*OOOrrrrrrrrrrNNNNNNNNNN",
"NNNNNNNNNNrrrrrrrrrrOOO*rrrrrrxxxxxxxxxxxxxxxxxxxxrrrrrr*OOOrrrrrrrrrrNNNNNNNNNN",
"NNNNNNNNNNrrrrrrrrrrOOO*rrrrrrxxxxxxxxxxxxxxxxxxxxrrrrrr*OOOrrrrrrrrrrNNNNNNNNNN",
"NNNNNNNNNNrrrrrrrrrrOOO*rrrrrrrrrzxxxxxxxxxxxxzrrrrrrrrr*OOOrrrrrrrrrrNNNNNNNNNN",
"NNNNNNNNNNrrrrrrrrrrOOO*rrrrrrrrrzxxxxxxxxxxxxzrrrrrrrrr*OOOrrrrrrrrrrNNNNNNNNNN",
"NNNNNNNNNNrrrrrrrrrrOOO*rrrrrrrrrzxxxxxxxxxxxxzrrrrrrrrr*OOOrrrrrrrrrrNNNNNNNNNN",
"NNNNNNNNNNrrrrrr0###***qrrrrrrrrrissssssssssssirrrrrrrrrq***###0rrrrrrNNNNNNNNNN",
"NNNNNNNNNNrrrrrr*OOOrrrrrrrrrrrrrrrrrrrrrrrrrrrrrrrrrrrrrrrrOOO*rrrrrrNNNNNNNNNN",
"NNNNNNNNNNrrrrrr*OOOrrrrrrrrrrrrrrrrrrrrrrrrrrrrrrrrrrrrrrrrOOO*rrrrrrNNNNNNNNNN",
"NNNNNNNNNNrrrrrr*OOOrrrrrrrrrrrrrrrrrrrrrrrrrrrrrrrrrrrrrrrrOOO*rrrrrrNNNNNNNNNN",
"NNNNNNNNNNrrrrrr*OOOrrrrrrrrrrrrrrrrrrrrrrrrrrrrrrrrrrrrrrrrOOO*rrrrrrNNNNNNNNNN",
"NNNNNNNNNNrrrrrr*OOOrrrrrrrrrrrrrrrrrrrrrrrrrrrrrrrrrrrrrrrrOOO*rrrrrrNNNNNNNNNN",
"NNNNNNNNNNrrrrrr*OOOrrrrrrrrrrrrrrrrrrrrrrrrrrrrrrrrrrrrrrrrOOO*rrrrrrNNNNNNNNNN",
"NNNNNNNNNNrrr#OO#rrrrrrrrrrrrrrrrrrrrrrrrrrrrrrrrrrrrrrrrrrrrrr#OO#rrrNNNNNNNNNN",
"NNNNNNNNNNrrr#OO#rrrrrrrrrrrrrrrrrrrrrrrrrrrrrrrrrrrrrrrrrrrrrr#OO#rrrNNNNNNNNNN",
"NNNNNNNNNNrrr#OO#rrrrrrrrrrrrrrrrrrrrrrrrrrrrrrrrrrrrrrrrrrrrrr#OO#rrrNNNNNNNNNN",
"NNNNNNNNNN###&**0rrrrrrrrrrrrrrrrrrrrrrrrrrrrrrrrrrrrrrrrrrrrrr0**&###NNNNNNNNNN",
"NNNNNNNNNNOOO*rrrrrrrrrrrrrrrrrrrrrrrrrrrrrrrrrrrrrrrrrrrrrrrrrrrr*OOONNNNNNNNNN",
"NNNNNNNNNNOOO*rrrrrrrrrrrrrrrrrrrrrrrrrrrrrrrrrrrrrrrrrrrrrrrrrrrr*OOONNNNNNNNNN",
"NNNNNNNNNNOOO*rrrrrrrrrrrrrrrrrrrrrrrrrrrrrrrrrrrrrrrrrrrrrrrrrrrr*OOONNNNNNNNNN",
"NNNNNNNNNNNNNrrrrrrrrrrrrrrrrrrrrrrrrrrrrrrrrrrrrrrrrrrrrrrrrrrrrrrNNNNNNNNNNNNN",
"NNNNNNNNNNNNNrrrrrrrrrrrrrrrrrrrrrrrrrrrrrrrrrrrrrrrrrrrrrrrrrrrrrrNNNNNNNNNNNNN",
"NNNNNNNNNNNNNrrrrrrrrrrrrrrrrrrrrrrrrrrrrrrrrrrrrrrrrrrrrrrrrrrrrrrNNNNNNNNNNNNN",
"NNNNNNNNNNNNNNNNrrrrrrrrrrrrrrrrrrrrrrrrrrrrrrrrrrrrrrrrrrrrrrrrNNNNNNNNNNNNNNNN",
"NNNNNNNNNNNNNNNNrrrrrrrrrrrrrrrrrrrrrrrrrrrrrrrrrrrrrrrrrrrrrrrrNNNNNNNNNNNNNNNN",
"NNNNNNNNNNNNNNNNrrrrrrrrrrrrrrrrrrrrrrrrrrrrrrrrrrrrrrrrrrrrrrrrNNNNNNNNNNNNNNNN",
"NNNNNNNNNNNNNNNNrrrrrrrrrruhhhrrrfzzzzzzzzzzzzfrrrhhhurrrrrrrrrrNNNNNNNNNNNNNNNN",
"NNNNNNNNNNNNNNNNNNNNNNNNNN9999NNNxxxxxxxxxxxxxxNNN9999NNNNNNNNNNNNNNNNNNNNNNNNNN",
"NNNNNNNNNNNNNNNNNNNNNNNNNN9999NNNxxxxxxxxxxxxxxNNN9999NNNNNNNNNNNNNNNNNNNNNNNNNN",
"NNNNNNNNNNNNNNNNNNNNNNNnnnv999nnncxxxxxxxxxxxxcnnn999vnnnNNNNNNNNNNNNNNNNNNNNNNN",
"NNNNNNNNNNNNNNNNNNNNNNNnnnv999nnnnNNxxxxxxxxNNnnnn999vnnnNNNNNNNNNNNNNNNNNNNNNNN",
"NNNNNNNNNNNNNNNNNNNNNNNnnnv999nnnnNNxxxxxxxxNNnnnn999vnnnNNNNNNNNNNNNNNNNNNNNNNN",
"NNNNNNNNNNNNNNNNNNNNNNNnnnv999nnnnNNxxxxxxxxNNnnnn999vnnnNNNNNNNNNNNNNNNNNNNNNNN"
};
