/* XPM */
static char *Minie_pixel_L[] = {
/* columns rows colors chars-per-pixel */
"80 80 33 1",
"  c black",
". c #7F0000",
"X c #495306",
"o c #545F0A",
"O c #626903",
"+ c #6E7C09",
"@ c #73820B",
"# c #895306",
"$ c #AE7C09",
"% c red",
"& c #C95306",
"* c #DE603F",
"= c #FA7A5A",
"- c #FF7F7F",
"; c #83940B",
": c #8C9808",
"> c #93A60C",
", c #9BAA08",
"< c #9DAC28",
"1 c #A4AE05",
"2 c #ABBC09",
"3 c #A8B345",
"4 c #BEC07F",
"5 c #C99245",
"6 c #E5A761",
"7 c #C4D206",
"8 c #F5FE00",
"9 c #C9D285",
"0 c #D5D781",
"q c #F7CA93",
"w c #ECEF84",
"e c gray100",
"r c #2d8043",
/* pixels */
"rrrrrrrrrrrrrrrrrrrrrrrrrrrrrrrrrrrrrrrrrrrrrrrrrrrrrrrrrrrrrrrrrrrrrrrrrrrrrrrr",
"rrrrrrrrrrrrrrrrrrrrrrrrrrrrrrrrrrrrrrrrrrrrrrrrrrrrrrrrrrrrrrrrrrrrrrrrrrrrrrrr",
"rrrrrrrrrrrrrrrrrrrrrrrrrrrrrrrrrrrrrrrrrrrrrrrrrrrrrrrrrrrrrrrrrrrrrrrrrrrrrrrr",
"rrrrrrrrrrrrrrrrrrrrrrrrrrrrrrrrrrrrrrrrrrrrrrrrrrrrrrrrrrrrrrrrrrrrrrrrrrrrrrrr",
"rrrrrrrrrrrrrrrrrrrrrrrrrrrrrrrrrrrrrrrrrrrrrrrrrrrrrrrrrrrrrrrrrrrrrrrrrrrrrrrr",
"rrrrrrrrrrrrrrrrrrrrrrrrrrrrrrrrrrrrrrrrrrrrrrrrrrrrrrrrrrrrrrrrrrrrrrrrrrrrrrrr",
"rrrrrrrrrrrrrrrrrrrrrrrrrrrrrrrrrrrrrrrrrrrrrrrrrrrrrrrrrrrrrrrrrrrrrrrrrrrrrrrr",
"rrrrrrrrrrrrrrrrrrrrrrrrrrrrrrrrrrrrrrrrrrrrrrrrrrrrrrrrrrrrrrrrrrrrrrrrrrrrrrrr",
"rrrrrrrrrrrrrrrrrrrrrrrrrrrrrrrrrrrrrrrrrrrrrrrrrrrrrrrrrrrrrrrrrrrrrrrrrrrrrrrr",
"rrrrrrrrrrrrrrrrrrrrrrrrrrrrrrrrrrrrrrrrrrrrrrrrrrrrrrrrrrrrrrrrrrrrrrrrrrrrrrrr",
"rrrrrrrrrrrrrrrrrrrrrrrrrrrrrrrrrrrrrrrrrrrrrrrrrrrrrrrrrrrrrrrrrrrrrrrrrrrrrrrr",
"rrrrrrrrrrrrrrrrrrrrrrrrrrrrrrrrrrrrrrrrrrrrrrrrrrrrrrrrrrrrrrrrrrrrrrrrrrrrrrrr",
"rrrrrrrrrrrrrrrrrrrr%%%%%%%%%%%%%rrrrrrrrrrrrrrrrrrrrrrrrrrrrrrrrrrrrrrrrrrrrrrr",
"rrrrrrrrrrrrrrrrrrrr%%%%%%%%%%%%%rrrrrrrrrrrrrrrrrrrrrrrrrrrrrrrrrrrrrrrrrrrrrrr",
"rrrrrrrrrrrrrrrrrrrr%%%%%%%%%%%%&rrrrrrrrrrrrrrrrrrrrrrrrrrrrrrrrrrrrrrrrrrrrrrr",
"rrrrrrrrrrrrrrrrr%%%%%&>>>>>>>>>>>>>>>rrrrrrrrrrrrrrrrrrrrrrrrrrrrrrrrrrrrrrrrrr",
"rrrrrrrrrrrrrrrrr%%%%%&>>>>>>>>>>>>>>>rrrrrrrrrrrrrrrrrrrrrrrrrrrrrrrrrrrrrrrrrr",
"rrrrrrrrrrrrrrr%%%%%&&$>>>>>>>>>>>>>>>>>rrrrrrrrrrrrrrrrrrrrrrrrrrrrrrrrrrrrrrrr",
"rrrrrrrrrrrrrrr%%%%%>>>>>>>>>>>>>>>>>>>>rrrrrrrrrrrrrrrrrrrrrrrrrrrrrrrrrrrrrrrr",
"rrrrrrrrrrrrrrr%%%%%>>>>>>>>>>>>>>>>>>>>rrrrrrrrrrrrrrrrrrrrrrrrrrrrrrrrrrrrrrrr",
"rrrrrrrrrrrr%%%%%%%%>>>>>>>>>>>>>>>>>>>>>>>rrrrrrrrrrrrrrrrrrrrrrrrrrrrrrrrrrrrr",
"rrrrrrrrrrrr%%%%%%%%>>>>>>>>>>>>>>>>>>>>>>>rrrrrrrrrrrrrrrrrrrrrrrrrrrrrrrrrrrrr",
"rrrrrrrrrrww6**%%%%%&&599XX#&&&&&&&>>>>>>>>>>rrrrrrrrrrrrrrrrrrrrrrrrrrrrrrrrrrr",
"rrrrrrrrrrww044%%%%%%%-ee  .%%%%%%%>>>>>>>>>>rrrrrrrrrrrrrrrrrrrrrrrrrrrrrrrrrrr",
"rrrrrrrrrrww044%%%%%%%-ee  .%%%%%%%>>>>>>>>>>rrrrrrrrrrrrrrrrrrrrrrrrrrrrrrrrrrr",
"rrrrrrrrrr44444443>>>>X    .%%%%&>>>>>>>>>788rrrrrrrrrrrrrrrrrrrrrrrrrrrrrrrrrrr",
"rrrrrrrrrr44444443>>>>X    .%%%%&>>>>>>>>>788rrrrrrrrrrrrrrrrrrrrrrrrrrrrrrrrrrr",
"rrrrrrrrrr4444433<>>>>+XXXX#&&&&$>>>>27777777>>>rrrrrrrrrrrrrrrrrrrrrrrrrrrrrrrr",
"rrrrrrrrrr44444>>>>>>>>>>>>>>>>>>>>>>788887>>>>>rrrrrrrrrrrrrrrrrrrrrrrrrrrrrrrr",
"rrrrrrrrrr44444>>>>>>>>>>>>>>>>>>>>>>788887>>>>>rrrrrrrrrrrrrrrrrrrrrrrrrrrrrrrr",
"rrrrrrrrrr  X>>>>>>>>>>>>>>>>>>>78888888>>>>>>>>>>rrrrrrrrrrrrrrrrrrrrrrrrrrrrrr",
"rrrrrrrrrr  X>>>>>>>>>>>>>>>>>>>78888888>>>>>>>>>>rrrrrrrrrrrrrrrrrrrrrrrrrrrrrr",
"rrrrrrrrrr  O77772>>>>>>>>>>>>@@,7777777>>>>>>>>>>rrrrrrrrrrrrrrrrrrrrrrrrrrrrrr",
"rrrrrrrrrrrr888887>>>>>>>>>>>>oo@>>>>>>>>>>>>>>>>>rrrrrrrrrrrrrrrrrrrrrrrrrrrrrr",
"rrrrrrrrrrrr888887>>>>>>>>>>>>oo@>>>>>>>>>>>>>>>>>rrrrrrrrrrrrrrrrrrrrrrrrrrrrrr",
"rrrrrrrrrrrr8888888888888>>@oo>>>>>>>>>>>>>>>>>>>>>>>rrrrrrrrrrrrrrrrrrrrrrrrrrr",
"rrrrrrrrrrrr8888888888888>>@oo>>>>>>>>>>>>>>>>>>>>>>>rrrrrrrrrrrrrrrrrrrrrrrrrrr",
"rrrrrrrrrrrr888888888888877:oo>>>>>>>>>>>>>>>>>>>>>>>rrrrrrrrrrrrrrrrrrrrrrrrrrr",
"rrrrrrrrrrrr8888888888888881oo>>>>>>>>>>>>>>>>>>>>>>>rrrrrrrrrrrrrrrrrrrrrrrrrrr",
"rrrrrrrrrrrr8888888888888881oo>>>>>>>>>>>>>>>>>>>>>>>rrrrrrrrrrrrrrrrrrrrrrrrrrr",
"rrrrrrrrrrrr88888888887>>>>>>>oo@>>>>>>>>>>>>>>>>>>>>>>rrrrrrrrrrrrrrrrrrrrrrrrr",
"rrrrrrrrrrrr88888888887>>>>>>>oo@>>>>>>>>>>>>>>>>>>>>>>rrrrrrrrrrrrrrrrrrrrrrrrr",
"rrrrrrrrrrrr88888888772>>>>>>>oo@>>>>>>>>>>>>>>>>>>>>>>rrrrrrrrrrrrrrrrrrrrrrrrr",
"rrrrrrrrrrrr88888888>>>>>>>>>>oo@>>>>>>>>>>>>>>>>>>>>>>rrrrrrrrrrrrrrrrrrrrrrrrr",
"rrrrrrrrrrrr88888888>>>>>>>>>>oo@>>>>>>>>>>>>>>>>>>>>>>rrrrrrrrrrrrrrrrrrrrrrrrr",
"rrrrrrrrrrrr888>>>>>>>>>>>>>>>>>@oo>>>>>>>>>>>>>>>>>>>>rrrrrrrrrrrrrrrrrrrrrrrrr",
"rrrrrrrrrrrr888>>>>>>>>>>>>>>>>>@oo>>>>>>>>>>>>>>>>>>>>rrrrrrrrrrrrrrrrrrrrrrrrr",
"rrrrrrrrrrrr777>>>>>>>>>>>>>>>>>;@@@@@@@@@;>>>>>>>>>;@@rrrrrrrrrrrrrrrrrrrrrrrrr",
"rrrrrrrrrrrr>>>>>>>>>>>>>>>>>>>>>>>ooooooo@>>>>>>>>>@oorrrrrrrrrrrrrrrrrrrrrrrrr",
"rrrrrrrrrrrr>>>>>>>>>>>>>>>>>>>>>>>ooooooo@>>>>>>>>>@oorrrrrrrrrrrrrrrrrrrrrrrrr",
"rrrrrrrrrrrr>>>>>>>>>>>>>>>>>>>>>>>>>>>>>>@oooooooooooo888rrrrrrrrrrrrrrrrrrrrrr",
"rrrrrrrrrrrr>>>>>>>>>>>>>>>>>>>>>>>>>>>>>>@oooooooooooo888rrrrrrrrrrrrrrrrrrrrrr",
"rrrrrrrrrrrr>>>>>>>>>>>>>>>>>>>>>>>>>>>>>>;@@@@@@@@@:1188888rrrrrrrrrrrrrrrrrrrr",
"rrrrrrrrrrrr>>>>>>>>>>>>>>>>>>>>>>>>>>>>>>>>>>>>>>>>78888888rrrrrrrrrrrrrrrrrrrr",
"rrrrrrrrrrrr>>>>>>>>>>>>>>>>>>>>>>>>>>>>>>>>>>>>>>>>78888888rrrrrrrrrrrrrrrrrrrr",
"rrrrrrrrrrrrrrr>>>>>>>>>>>>>>>>>>>>>>>>>>>>>>>>>>>>>78888888888rrrrrrrrrrrrrrrrr",
"rrrrrrrrrrrrrrr>>>>>>>>>>>>>>>>>>>>>>>>>>>>>>>>>>>>>78888888888rrrrrrrrrrrrrrrrr",
"rrrrrrrrrrrrrrr>>>>>>>>>>>>>>>>>>>>>>>>>>>>>>>>>>>>>7888888888888rrrrrrrrrrrrrrr",
"rrrrrrrrrrrrrrrrr>>>>>>>>>>>>>>>>>>>>>>>>>>>>>>>>>rrrrr8888888888rrrrrrrrrrrrrrr",
"rrrrrrrrrrrrrrrrr>>>>>>>>>>>>>>>>>>>>>>>>>>>>>>>>>rrrrr8888888888rrrrrrrrrrrrrrr",
"rrrrrrrrrrrrrrrrrrrrrrrrr===rrrrrrrrrrrr===rrrrrrrrrrrrrrrrr88888888rrrrrrrrrrrr",
"rrrrrrrrrrrrrrrrrrrrrrrrr===rrrrrrrrrrrr===rrrrrrrrrrrrrrrrr88888888rrrrrrrrrrrr",
"rrrrrrrrrrrrrrrrrqqq==========rrqqq==========rrrrrrrrrrrrrrr8888888888rrrrrrrrrr",
"rrrrrrrrrrrrrrrrrqqq==========rrqqq==========rrrrrrrrrrrrrrrrrrrr88888rrrrrrrrrr",
"rrrrrrrrrrrrrrrrrqqq==========rrqqq==========rrrrrrrrrrrrrrrrrrrr88888rrrrrrrrrr",
"rrrrrrrrrrrrrrrrrrrrrrrrrrrrrrrrrrrrrrrrrrrrrrrrrrrrrrrrrrrrrrrrrrrrrrrrrrrrrrrr",
"rrrrrrrrrrrrrrrrrrrrrrrrrrrrrrrrrrrrrrrrrrrrrrrrrrrrrrrrrrrrrrrrrrrrrrrrrrrrrrrr",
"rrrrrrrrrrrrrrrrrrrrrrrrrrrrrrrrrrrrrrrrrrrrrrrrrrrrrrrrrrrrrrrrrrrrrrrrrrrrrrrr",
"rrrrrrrrrrrrrrrrrrrrrrrrrrrrrrrrrrrrrrrrrrrrrrrrrrrrrrrrrrrrrrrrrrrrrrrrrrrrrrrr",
"rrrrrrrrrrrrrrrrrrrrrrrrrrrrrrrrrrrrrrrrrrrrrrrrrrrrrrrrrrrrrrrrrrrrrrrrrrrrrrrr",
"rrrrrrrrrrrrrrrrrrrrrrrrrrrrrrrrrrrrrrrrrrrrrrrrrrrrrrrrrrrrrrrrrrrrrrrrrrrrrrrr",
"rrrrrrrrrrrrrrrrrrrrrrrrrrrrrrrrrrrrrrrrrrrrrrrrrrrrrrrrrrrrrrrrrrrrrrrrrrrrrrrr",
"rrrrrrrrrrrrrrrrrrrrrrrrrrrrrrrrrrrrrrrrrrrrrrrrrrrrrrrrrrrrrrrrrrrrrrrrrrrrrrrr",
"rrrrrrrrrrrrrrrrrrrrrrrrrrrrrrrrrrrrrrrrrrrrrrrrrrrrrrrrrrrrrrrrrrrrrrrrrrrrrrrr",
"rrrrrrrrrrrrrrrrrrrrrrrrrrrrrrrrrrrrrrrrrrrrrrrrrrrrrrrrrrrrrrrrrrrrrrrrrrrrrrrr",
"rrrrrrrrrrrrrrrrrrrrrrrrrrrrrrrrrrrrrrrrrrrrrrrrrrrrrrrrrrrrrrrrrrrrrrrrrrrrrrrr",
"rrrrrrrrrrrrrrrrrrrrrrrrrrrrrrrrrrrrrrrrrrrrrrrrrrrrrrrrrrrrrrrrrrrrrrrrrrrrrrrr",
"rrrrrrrrrrrrrrrrrrrrrrrrrrrrrrrrrrrrrrrrrrrrrrrrrrrrrrrrrrrrrrrrrrrrrrrrrrrrrrrr",
"rrrrrrrrrrrrrrrrrrrrrrrrrrrrrrrrrrrrrrrrrrrrrrrrrrrrrrrrrrrrrrrrrrrrrrrrrrrrrrrr",
"rrrrrrrrrrrrrrrrrrrrrrrrrrrrrrrrrrrrrrrrrrrrrrrrrrrrrrrrrrrrrrrrrrrrrrrrrrrrrrrr"
};
