/* XPM */
static char *Minie_pixel[] = {
/* columns rows colors chars-per-pixel */
"80 80 33 1",
"  c black",
". c #7F0000",
"X c #495306",
"o c #545F0A",
"O c #626903",
"+ c #6E7C09",
"@ c #73820B",
"# c #895306",
"$ c #AE7C09",
"% c red",
"& c #C95306",
"* c #DE603F",
"= c #FA7A5A",
"- c #FF7F7F",
"; c #83940B",
": c #8C9808",
"> c #93A60C",
", c #9BAA08",
"< c #9DAC28",
"1 c #A4AE05",
"2 c #ABBC09",
"3 c #A8B345",
"4 c #BEC07F",
"5 c #C99245",
"6 c #E5A761",
"7 c #C4D206",
"8 c #F5FE00",
"9 c #C9D285",
"0 c #D5D781",
"q c #F7CA93",
"w c #ECEF84",
"e c gray100",
"r c None",
/* pixels */
"rrrrrrrrrrrrrrrrrrrrrrrrrrrrrrrrrrrrrrrrrrrrrrrrrrrrrrrrrrrrrrrrrrrrrrrrrrrrrrrr",
"rrrrrrrrrrrrrrrrrrrrrrrrrrrrrrrrrrrrrrrrrrrrrrrrrrrrrrrrrrrrrrrrrrrrrrrrrrrrrrrr",
"rrrrrrrrrrrrrrrrrrrrrrrrrrrrrrrrrrrrrrrrrrrrrrrrrrrrrrrrrrrrrrrrrrrrrrrrrrrrrrrr",
"rrrrrrrrrrrrrrrrrrrrrrrrrrrrrrrrrrrrrrrrrrrrrrrrrrrrrrrrrrrrrrrrrrrrrrrrrrrrrrrr",
"rrrrrrrrrrrrrrrrrrrrrrrrrrrrrrrrrrrrrrrrrrrrrrrrrrrrrrrrrrrrrrrrrrrrrrrrrrrrrrrr",
"rrrrrrrrrrrrrrrrrrrrrrrrrrrrrrrrrrrrrrrrrrrrrrrrrrrrrrrrrrrrrrrrrrrrrrrrrrrrrrrr",
"rrrrrrrrrrrrrrrrrrrrrrrrrrrrrrrrrrrrrrrrrrrrrrrrrrrrrrrrrrrrrrrrrrrrrrrrrrrrrrrr",
"rrrrrrrrrrrrrrrrrrrrrrrrrrrrrrrrrrrrrrrrrrrrrrrrrrrrrrrrrrrrrrrrrrrrrrrrrrrrrrrr",
"rrrrrrrrrrrrrrrrrrrrrrrrrrrrrrrrrrrrrrrrrrrrrrrrrrrrrrrrrrrrrrrrrrrrrrrrrrrrrrrr",
"rrrrrrrrrrrrrrrrrrrrrrrrrrrrrrrrrrrrrrrrrrrrrrrrrrrrrrrrrrrrrrrrrrrrrrrrrrrrrrrr",
"rrrrrrrrrrrrrrrrrrrrrrrrrrrrrrrrrrrrrrrrrrrrrrrrrrrrrrrrrrrrrrrrrrrrrrrrrrrrrrrr",
"rrrrrrrrrrrrrrrrrrrrrrrrrrrrrrrrrrrrrrrrrrrrrrrrrrrrrrrrrrrrrrrrrrrrrrrrrrrrrrrr",
"rrrrrrrrrrrrrrrrrrrrrrrrrrrrrrrrrrrrrrrrrrrrrrr%%%%%%%%%%%%%rrrrrrrrrrrrrrrrrrrr",
"rrrrrrrrrrrrrrrrrrrrrrrrrrrrrrrrrrrrrrrrrrrrrrr%%%%%%%%%%%%%rrrrrrrrrrrrrrrrrrrr",
"rrrrrrrrrrrrrrrrrrrrrrrrrrrrrrrrrrrrrrrrrrrrrrr&%%%%%%%%%%%%rrrrrrrrrrrrrrrrrrrr",
"rrrrrrrrrrrrrrrrrrrrrrrrrrrrrrrrrrrrrrrrrr>>>>>>>>>>>>>>>&%%%%%rrrrrrrrrrrrrrrrr",
"rrrrrrrrrrrrrrrrrrrrrrrrrrrrrrrrrrrrrrrrrr>>>>>>>>>>>>>>>&%%%%%rrrrrrrrrrrrrrrrr",
"rrrrrrrrrrrrrrrrrrrrrrrrrrrrrrrrrrrrrrrr>>>>>>>>>>>>>>>>>$&&%%%%%rrrrrrrrrrrrrrr",
"rrrrrrrrrrrrrrrrrrrrrrrrrrrrrrrrrrrrrrrr>>>>>>>>>>>>>>>>>>>>%%%%%rrrrrrrrrrrrrrr",
"rrrrrrrrrrrrrrrrrrrrrrrrrrrrrrrrrrrrrrrr>>>>>>>>>>>>>>>>>>>>%%%%%rrrrrrrrrrrrrrr",
"rrrrrrrrrrrrrrrrrrrrrrrrrrrrrrrrrrrrr>>>>>>>>>>>>>>>>>>>>>>>%%%%%%%%rrrrrrrrrrrr",
"rrrrrrrrrrrrrrrrrrrrrrrrrrrrrrrrrrrrr>>>>>>>>>>>>>>>>>>>>>>>%%%%%%%%rrrrrrrrrrrr",
"rrrrrrrrrrrrrrrrrrrrrrrrrrrrrrrrrrr>>>>>>>>>>&&&&&&&#XX995&&%%%%%**6wwrrrrrrrrrr",
"rrrrrrrrrrrrrrrrrrrrrrrrrrrrrrrrrrr>>>>>>>>>>%%%%%%%.  ee-%%%%%%%440wwrrrrrrrrrr",
"rrrrrrrrrrrrrrrrrrrrrrrrrrrrrrrrrrr>>>>>>>>>>%%%%%%%.  ee-%%%%%%%440wwrrrrrrrrrr",
"rrrrrrrrrrrrrrrrrrrrrrrrrrrrrrrrrrr887>>>>>>>>>&%%%%.    X>>>>34444444rrrrrrrrrr",
"rrrrrrrrrrrrrrrrrrrrrrrrrrrrrrrrrrr887>>>>>>>>>&%%%%.    X>>>>34444444rrrrrrrrrr",
"rrrrrrrrrrrrrrrrrrrrrrrrrrrrrrrr>>>77777772>>>>$&&&&#XXXX+>>>><3344444rrrrrrrrrr",
"rrrrrrrrrrrrrrrrrrrrrrrrrrrrrrrr>>>>>788887>>>>>>>>>>>>>>>>>>>>>>44444rrrrrrrrrr",
"rrrrrrrrrrrrrrrrrrrrrrrrrrrrrrrr>>>>>788887>>>>>>>>>>>>>>>>>>>>>>44444rrrrrrrrrr",
"rrrrrrrrrrrrrrrrrrrrrrrrrrrrrr>>>>>>>>>>88888887>>>>>>>>>>>>>>>>>>>X  rrrrrrrrrr",
"rrrrrrrrrrrrrrrrrrrrrrrrrrrrrr>>>>>>>>>>88888887>>>>>>>>>>>>>>>>>>>X  rrrrrrrrrr",
"rrrrrrrrrrrrrrrrrrrrrrrrrrrrrr>>>>>>>>>>7777777,@@>>>>>>>>>>>>27777O  rrrrrrrrrr",
"rrrrrrrrrrrrrrrrrrrrrrrrrrrrrr>>>>>>>>>>>>>>>>>@oo>>>>>>>>>>>>788888rrrrrrrrrrrr",
"rrrrrrrrrrrrrrrrrrrrrrrrrrrrrr>>>>>>>>>>>>>>>>>@oo>>>>>>>>>>>>788888rrrrrrrrrrrr",
"rrrrrrrrrrrrrrrrrrrrrrrrrrr>>>>>>>>>>>>>>>>>>>>>>>oo@>>8888888888888rrrrrrrrrrrr",
"rrrrrrrrrrrrrrrrrrrrrrrrrrr>>>>>>>>>>>>>>>>>>>>>>>oo@>>8888888888888rrrrrrrrrrrr",
"rrrrrrrrrrrrrrrrrrrrrrrrrrr>>>>>>>>>>>>>>>>>>>>>>>oo:778888888888888rrrrrrrrrrrr",
"rrrrrrrrrrrrrrrrrrrrrrrrrrr>>>>>>>>>>>>>>>>>>>>>>>oo1888888888888888rrrrrrrrrrrr",
"rrrrrrrrrrrrrrrrrrrrrrrrrrr>>>>>>>>>>>>>>>>>>>>>>>oo1888888888888888rrrrrrrrrrrr",
"rrrrrrrrrrrrrrrrrrrrrrrrr>>>>>>>>>>>>>>>>>>>>>>@oo>>>>>>>78888888888rrrrrrrrrrrr",
"rrrrrrrrrrrrrrrrrrrrrrrrr>>>>>>>>>>>>>>>>>>>>>>@oo>>>>>>>78888888888rrrrrrrrrrrr",
"rrrrrrrrrrrrrrrrrrrrrrrrr>>>>>>>>>>>>>>>>>>>>>>@oo>>>>>>>27788888888rrrrrrrrrrrr",
"rrrrrrrrrrrrrrrrrrrrrrrrr>>>>>>>>>>>>>>>>>>>>>>@oo>>>>>>>>>>88888888rrrrrrrrrrrr",
"rrrrrrrrrrrrrrrrrrrrrrrrr>>>>>>>>>>>>>>>>>>>>>>@oo>>>>>>>>>>88888888rrrrrrrrrrrr",
"rrrrrrrrrrrrrrrrrrrrrrrrr>>>>>>>>>>>>>>>>>>>>oo@>>>>>>>>>>>>>>>>>888rrrrrrrrrrrr",
"rrrrrrrrrrrrrrrrrrrrrrrrr>>>>>>>>>>>>>>>>>>>>oo@>>>>>>>>>>>>>>>>>888rrrrrrrrrrrr",
"rrrrrrrrrrrrrrrrrrrrrrrrr@@;>>>>>>>>>;@@@@@@@@@;>>>>>>>>>>>>>>>>>777rrrrrrrrrrrr",
"rrrrrrrrrrrrrrrrrrrrrrrrroo@>>>>>>>>>@ooooooo>>>>>>>>>>>>>>>>>>>>>>>rrrrrrrrrrrr",
"rrrrrrrrrrrrrrrrrrrrrrrrroo@>>>>>>>>>@ooooooo>>>>>>>>>>>>>>>>>>>>>>>rrrrrrrrrrrr",
"rrrrrrrrrrrrrrrrrrrrrr888oooooooooooo@>>>>>>>>>>>>>>>>>>>>>>>>>>>>>>rrrrrrrrrrrr",
"rrrrrrrrrrrrrrrrrrrrrr888oooooooooooo@>>>>>>>>>>>>>>>>>>>>>>>>>>>>>>rrrrrrrrrrrr",
"rrrrrrrrrrrrrrrrrrrr8888811:@@@@@@@@@;>>>>>>>>>>>>>>>>>>>>>>>>>>>>>>rrrrrrrrrrrr",
"rrrrrrrrrrrrrrrrrrrr88888887>>>>>>>>>>>>>>>>>>>>>>>>>>>>>>>>>>>>>>>>rrrrrrrrrrrr",
"rrrrrrrrrrrrrrrrrrrr88888887>>>>>>>>>>>>>>>>>>>>>>>>>>>>>>>>>>>>>>>>rrrrrrrrrrrr",
"rrrrrrrrrrrrrrrrr88888888887>>>>>>>>>>>>>>>>>>>>>>>>>>>>>>>>>>>>>rrrrrrrrrrrrrrr",
"rrrrrrrrrrrrrrrrr88888888887>>>>>>>>>>>>>>>>>>>>>>>>>>>>>>>>>>>>>rrrrrrrrrrrrrrr",
"rrrrrrrrrrrrrrr8888888888887>>>>>>>>>>>>>>>>>>>>>>>>>>>>>>>>>>>>>rrrrrrrrrrrrrrr",
"rrrrrrrrrrrrrrr8888888888rrrrr>>>>>>>>>>>>>>>>>>>>>>>>>>>>>>>>>rrrrrrrrrrrrrrrrr",
"rrrrrrrrrrrrrrr8888888888rrrrr>>>>>>>>>>>>>>>>>>>>>>>>>>>>>>>>>rrrrrrrrrrrrrrrrr",
"rrrrrrrrrrrr88888888rrrrrrrrrrrrrrrrr===rrrrrrrrrrrr===rrrrrrrrrrrrrrrrrrrrrrrrr",
"rrrrrrrrrrrr88888888rrrrrrrrrrrrrrrrr===rrrrrrrrrrrr===rrrrrrrrrrrrrrrrrrrrrrrrr",
"rrrrrrrrrr8888888888rrrrrrrrrrrrrrr==========qqqrr==========qqqrrrrrrrrrrrrrrrrr",
"rrrrrrrrrr88888rrrrrrrrrrrrrrrrrrrr==========qqqrr==========qqqrrrrrrrrrrrrrrrrr",
"rrrrrrrrrr88888rrrrrrrrrrrrrrrrrrrr==========qqqrr==========qqqrrrrrrrrrrrrrrrrr",
"rrrrrrrrrrrrrrrrrrrrrrrrrrrrrrrrrrrrrrrrrrrrrrrrrrrrrrrrrrrrrrrrrrrrrrrrrrrrrrrr",
"rrrrrrrrrrrrrrrrrrrrrrrrrrrrrrrrrrrrrrrrrrrrrrrrrrrrrrrrrrrrrrrrrrrrrrrrrrrrrrrr",
"rrrrrrrrrrrrrrrrrrrrrrrrrrrrrrrrrrrrrrrrrrrrrrrrrrrrrrrrrrrrrrrrrrrrrrrrrrrrrrrr",
"rrrrrrrrrrrrrrrrrrrrrrrrrrrrrrrrrrrrrrrrrrrrrrrrrrrrrrrrrrrrrrrrrrrrrrrrrrrrrrrr",
"rrrrrrrrrrrrrrrrrrrrrrrrrrrrrrrrrrrrrrrrrrrrrrrrrrrrrrrrrrrrrrrrrrrrrrrrrrrrrrrr",
"rrrrrrrrrrrrrrrrrrrrrrrrrrrrrrrrrrrrrrrrrrrrrrrrrrrrrrrrrrrrrrrrrrrrrrrrrrrrrrrr",
"rrrrrrrrrrrrrrrrrrrrrrrrrrrrrrrrrrrrrrrrrrrrrrrrrrrrrrrrrrrrrrrrrrrrrrrrrrrrrrrr",
"rrrrrrrrrrrrrrrrrrrrrrrrrrrrrrrrrrrrrrrrrrrrrrrrrrrrrrrrrrrrrrrrrrrrrrrrrrrrrrrr",
"rrrrrrrrrrrrrrrrrrrrrrrrrrrrrrrrrrrrrrrrrrrrrrrrrrrrrrrrrrrrrrrrrrrrrrrrrrrrrrrr",
"rrrrrrrrrrrrrrrrrrrrrrrrrrrrrrrrrrrrrrrrrrrrrrrrrrrrrrrrrrrrrrrrrrrrrrrrrrrrrrrr",
"rrrrrrrrrrrrrrrrrrrrrrrrrrrrrrrrrrrrrrrrrrrrrrrrrrrrrrrrrrrrrrrrrrrrrrrrrrrrrrrr",
"rrrrrrrrrrrrrrrrrrrrrrrrrrrrrrrrrrrrrrrrrrrrrrrrrrrrrrrrrrrrrrrrrrrrrrrrrrrrrrrr",
"rrrrrrrrrrrrrrrrrrrrrrrrrrrrrrrrrrrrrrrrrrrrrrrrrrrrrrrrrrrrrrrrrrrrrrrrrrrrrrrr",
"rrrrrrrrrrrrrrrrrrrrrrrrrrrrrrrrrrrrrrrrrrrrrrrrrrrrrrrrrrrrrrrrrrrrrrrrrrrrrrrr",
"rrrrrrrrrrrrrrrrrrrrrrrrrrrrrrrrrrrrrrrrrrrrrrrrrrrrrrrrrrrrrrrrrrrrrrrrrrrrrrrr"
};
